<?xml version="1.0" encoding="utf-8"?>
<!DOCTYPE svg PUBLIC "-//W3C//DTD SVG 1.0//EN" "http://www.w3.org/TR/2001/REC-SVG-20010904/DTD/svg10.dtd">
<svg version="1.0" xmlns="http://www.w3.org/2000/svg" width="1768px" height="1792px" viewBox="0 0 1768 1792" preserveAspectRatio="xMidYMid meet">
 <g fill="#ffffff">
  <path d="M836.5 1492.3 c-171.6 -8 -330 -77.9 -451 -198.8 -92.5 -92.6 -156.7 -209.7 -184 -336 -6 -27.9 -13.5 -79.8 -13.5 -93.9 0 -3.6 -0.3 -4.4 -1.5 -4 -1 0.4 -1.5 0 -1.5 -1.3 0 -1.7 2.5 -2.8 16.9 -7.1 19.3 -5.9 23.1 -6.4 23.1 -2.9 0 12.4 6.2 59.4 10.5 79.7 2.9 13.5 2.6 10.1 -0.9 -10 -4.1 -24.4 -7.6 -55.2 -7.6 -68 l0 -6.6 152.2 -46.7 c83.8 -25.7 153.5 -46.7 154.9 -46.7 3 0 6.3 4.1 10.1 12.5 3.1 7.1 3 20.5 -0.4 46.5 -3 22 -5.1 41.8 -10.2 93 l-3.2 32.5 -3.3 0.3 c-1.8 0.2 -6 -0.6 -9.3 -1.7 -3.4 -1.2 -6.3 -2 -6.4 -1.8 -0.1 0.1 -1.6 13.7 -3.3 30.2 -1.7 16.5 -3.3 31 -3.5 32.1 -0.3 2 1.1 2.6 16.7 7 l17 4.7 -0.7 7.1 c-0.3 3.9 -1 10.7 -1.6 15.1 -1.7 13.3 0.6 30.6 6.2 46.5 11.8 33.6 38 54.9 69.9 56.7 5.3 0.3 12 0.3 15 -0.1 l5.4 -0.7 25 -35.4 c32.6 -46.3 58.1 -82.2 73.1 -103.1 6.6 -9.3 47.8 -67.3 91.4 -128.9 43.7 -61.6 95.2 -134.3 114.5 -161.5 19.3 -27.2 36.5 -52.1 38.3 -55.2 1.8 -3.2 3.7 -6 4.3 -6.3 0.9 -0.6 64.7 -89.7 113.4 -158.5 14.2 -20.1 26.2 -36.6 26.7 -36.8 0.4 -0.2 1.5 -1.9 2.4 -3.7 0.8 -1.8 3.1 -5.1 5 -7.3 l3.4 -4 -7.6 -7.6 c-37 -36.8 -137.2 -69.6 -212.4 -69.6 -52.2 0 -95.4 9.9 -124 28.5 -14.6 9.4 -28 23.4 -35 36.6 l-3.1 5.9 -8.7 0 c-4.8 0 -31.1 -0.9 -58.5 -2.1 -35.5 -1.6 -50.7 -1.9 -53 -1.1 -2.6 0.8 -1.1 1 8.3 1.1 6.3 0.1 30.9 1 54.5 2.1 23.7 1.1 45.4 2 48.3 2 l5.2 0 0 3.8 c-0.1 2 -9.4 42.4 -20.8 89.7 l-20.8 86 -13.8 -0.3 c-7.6 -0.2 -17.7 -0.7 -22.5 -1 l-8.6 -0.7 -0.3 -4 c-0.1 -2.2 4.9 -37.7 11.2 -78.9 8.2 -53.8 11.2 -75.6 10.5 -77.3 -0.5 -1.3 -2.4 -3 -4.3 -3.8 -3.3 -1.4 -44.6 -7.5 -50.7 -7.5 -2.5 0 -2.9 -0.4 -2.9 -2.7 0 -2.5 -0.1 -2.6 -1.4 -0.8 -1.2 1.6 -2.2 1.7 -10.2 1 -12.2 -1 -12.6 -0.9 -15.1 1.9 -2.3 2.7 -2.5 4 -4.3 22.6 -0.5 6.3 -1.5 15.6 -2 20.5 -0.6 5 -3.8 35.7 -7 68.3 -4.4 43.2 -5.7 59.8 -5 61.2 1.9 3.5 10.2 4.7 43.1 6.5 34.1 1.9 35.3 1.8 36.5 -3.2 0.7 -2.5 0.8 -2.6 7.3 -1.9 3.6 0.3 11.3 0.8 17.1 1.1 5.8 0.3 12.4 0.8 14.8 1.1 4 0.5 4.2 0.7 4.2 3.8 0 1.9 -0.7 3.9 -1.7 4.8 -1 0.8 -6.7 2.7 -12.6 4.1 -21.1 5.1 -29 10.7 -36.3 26.2 -3.9 8.2 -4.8 9.3 -7.5 9.9 -1.7 0.3 -12.9 0.6 -24.8 0.6 -13.2 0 -26.4 0.6 -33.6 1.5 -6.6 0.8 -14.5 1.5 -17.7 1.5 l-5.6 0 -106.4 -113 c-94.4 -100.3 -106.3 -113.3 -106.6 -116.4 -0.3 -3.1 -0.7 -3.5 -3.5 -3.8 -2.6 -0.2 -5.1 -2.2 -12.4 -10 -7.8 -8 -9.3 -10.1 -9.3 -12.8 0 -2.7 0.2 -3 1.4 -2.1 1.1 1 3.1 -0.9 10.2 -10.1 30.3 -38.6 71.8 -80.2 112.1 -112.1 123.4 -97.8 277.7 -149.8 433.8 -146.4 40.7 0.9 73.2 4.1 109.7 10.7 229.3 41.4 423.6 200.1 510 416.5 25.8 64.5 39.6 123.1 46.4 196.5 2.2 23.1 2.5 85.9 0.6 108.5 -7 81.8 -26.2 156.8 -58.2 227.4 -91 200.8 -272.5 345.2 -487.6 388 -51.2 10.2 -112.2 14.8 -162.9 12.4z m-72.6 -41.7 c-0.7 -0.7 -22.1 -4.8 -22.5 -4.3 -0.3 0.2 3.9 1.3 9.3 2.5 9.7 2 14 2.6 13.2 1.8z m-30.9 -6.6 c-1.4 -0.4 -3.4 -0.8 -4.5 -0.8 -1.6 0 -1.5 0.2 0.5 0.8 1.4 0.4 3.4 0.8 4.5 0.8 1.6 0 1.5 -0.2 -0.5 -0.8z m29 -64 c5.3 -22.8 10 -42.7 10.3 -44.2 0.9 -3.6 3.2 -3.6 20.2 0.1 7.2 1.6 13.2 2.8 13.3 2.6 0.2 -0.2 0.6 -3.1 0.9 -6.4 0.5 -5.7 0.4 -6 -1.8 -6.6 -9.4 -2.2 -64.5 -13.3 -64.8 -13 -0.2 0.2 -0.9 2.9 -1.6 5.9 -1.5 6.4 -2.5 5.7 11 8.1 12.7 2.3 12.5 2.2 12.4 5.8 0 1.8 -4.2 22.3 -9.3 45.7 -10.2 46.4 -10 44.2 -3.2 43.7 l3 -0.2 9.6 -41.5z m-56.4 -22.7 c10.5 -25.8 18.8 -47.1 18.5 -47.5 -0.3 -0.4 -1.9 -0.8 -3.5 -1 l-3 -0.3 -7.6 19.5 c-7.3 18.9 -7.7 19.5 -10.5 19.8 -1.8 0.2 -12.3 -3.1 -26.5 -8.1 -23 -8.2 -23.5 -8.5 -23.8 -11.3 -0.2 -2 2.4 -8.6 8.1 -20.9 l8.5 -18 -2.7 -1.1 c-7.1 -3.1 -4.9 -6.8 -25.4 43.2 -10.3 25.1 -18.6 45.8 -18.4 46 0.1 0.2 2 1 4 1.9 l3.7 1.5 1.5 -3.2 c0.9 -1.8 4.8 -10.9 8.8 -20.3 7 -16.2 7.4 -17 10.2 -17.3 1.9 -0.1 11.4 3 25.5 8.6 21.2 8.3 22.5 8.9 22.8 11.5 0.2 1.7 -2.7 10.3 -7.2 22 -4.2 10.6 -7.6 19.5 -7.6 19.9 0 0.6 2.2 1.4 4.5 1.7 0.6 0 9.7 -20.9 20.1 -46.6z m271.2 42.5 c-0.5 -2.4 -7.4 -32.6 -15.4 -67.2 -8 -34.6 -14.4 -64.3 -14.2 -66 0.3 -2.7 4.5 -6.7 31.3 -29.8 25.6 -22.1 31.5 -26.8 33.9 -26.8 2.3 0 72 21.4 73.4 22.6 0.2 0.1 5.9 25 12.7 55.4 6.8 30.3 12.5 55.4 12.8 55.6 0.2 0.3 16.2 -14.6 35.5 -33.1 l35 -33.5 -1.5 -6.8 c-15.3 -67.3 -28.3 -122.6 -29 -123.3 -0.5 -0.5 -21 -8.2 -45.4 -17.1 -24.4 -8.8 -44.5 -16.2 -44.7 -16.3 -0.3 -0.2 -41.6 -194.5 -63.3 -298 -2.8 -13.2 -7.7 -35.9 -10.8 -50.5 -3.2 -14.6 -6.4 -29.5 -7.1 -33.3 -0.7 -3.7 -1.6 -6.9 -2 -7.2 -0.5 -0.3 -8 9.7 -16.8 22.2 -8.7 12.6 -21.7 31 -28.8 40.9 -21.7 30.6 -59.7 84.5 -62.6 88.8 l-2.7 4.1 2.5 9 c7.1 25 59.6 254.7 59.2 258.9 -0.3 2.9 -4.5 7.1 -35.9 36 -25.2 23.1 -35.6 33.2 -35.3 34.4 0.2 0.9 8 35.8 17.3 77.6 9.3 41.7 17.4 76.3 17.9 76.8 1.2 1.2 81 30.6 83.3 30.7 1.5 0.1 1.6 -0.5 0.7 -4.1z m-385.1 -53.9 c6.7 -2.2 16.4 -8.1 20.2 -12.3 l2.5 -2.7 -2.5 -2.3 c-4.5 -4.4 -34 -22.9 -35 -21.9 -0.6 0.6 4 4.2 11.6 9.4 l12.4 8.4 0.1 4.2 c0 4.1 0 4.2 -5.7 6.4 -8.7 3.3 -23 3.8 -32.2 1 -11.1 -3.4 -19.1 -10.3 -24.4 -21.1 -3.1 -6.3 -3.2 -7 -3.2 -19 0 -12.2 0.1 -12.7 3.3 -19 3.7 -7.5 6.1 -10.4 12.6 -15.4 9.6 -7.3 27.3 -9.8 40.7 -5.7 15 4.7 25.7 17.3 27.5 32.4 0.4 3.1 1.2 5.7 1.8 5.7 0.6 0 2.7 -0.3 4.7 -0.6 l3.6 -0.6 -0.8 -4.2 c-5.3 -27.6 -33.6 -49.1 -58.9 -44.6 -27.6 4.9 -49.4 33.4 -45 58.8 2.9 17.1 14.9 32.7 31.5 40.7 12.1 5.9 22.6 6.6 35.2 2.4z m-72.3 -93.1 c17.4 -19.7 31.6 -36.1 31.6 -36.5 0 -0.8 -6.4 -5.3 -7.5 -5.3 -0.3 0 -14.9 17.3 -32.6 38.5 l-32.2 38.6 2.4 2.5 2.3 2.5 2.2 -2.3 c1.2 -1.3 16.4 -18.4 33.8 -38z m-57.1 16.4 l2.7 -2.8 -13.5 -14.4 c-11.2 -12 -13.5 -15 -13.5 -17.6 0 -2.7 3.7 -6.5 32 -33.9 l32 -30.9 -2.7 -2.8 -2.7 -2.8 -3 2.8 c-5.1 4.7 -63.8 60.2 -68.1 64.3 l-4 3.9 18.5 18.5 c10.2 10.2 18.7 18.5 19.1 18.5 0.3 0 1.7 -1.3 3.2 -2.8z m372.7 -33.6 c0 -0.2 -0.9 -4.8 -2 -10.1 -1.1 -5.3 -2 -12.3 -1.9 -15.4 l0.1 -5.6 11.1 -10.5 c6.2 -5.8 21.9 -20.8 34.9 -33.5 l23.7 -23 -27.4 -111.9 c-15.1 -61.5 -27.5 -112.5 -27.7 -113.4 -0.4 -1.7 -35.4 47.1 -144.8 201.9 -19.5 27.7 -37.8 53.4 -40.7 57.3 -4.9 6.7 -5 7.1 -3.2 8.4 4.5 3.2 64 33.2 64.8 32.8 0.5 -0.3 10.3 -15.7 21.7 -34.2 11.5 -18.5 21.5 -33.9 22.3 -34.2 0.8 -0.3 8.1 0.8 16.2 2.3 l14.9 2.9 0.5 3 c0.2 1.7 2.1 20.2 4 41.1 2 20.9 3.9 38.3 4.3 38.7 1.2 1.1 29.2 4.4 29.2 3.4z m-411.1 -41.1 c24.9 -5.9 44.4 -31.9 40.2 -53.6 -2.1 -10.7 -3 -12.2 -25.4 -44.6 -4 -5.7 -5.3 -7 -6.6 -6.3 -0.9 0.5 -18.5 12.7 -39.1 27.3 -23.6 16.6 -37.5 26.9 -37.4 27.9 0.2 2.7 22.6 33.8 27.4 38 7.9 7 21.4 12.5 31 12.7 1.9 0 6.4 -0.6 9.9 -1.4z m-45.1 -114.3 l33.9 -35.4 -1.6 -5.4 c-1.5 -5.2 -1.8 -5.4 -5 -5.4 -4.4 0 -106.4 9 -106.9 9.4 -0.2 0.2 0.4 2.8 1.3 5.8 l1.6 5.5 12.2 -1.9 c19.1 -3 16.6 -4.7 27.4 19.2 5.1 11.2 9.3 21.7 9.3 23.4 0 2.3 -1.9 5 -8.9 12.5 l-8.9 9.7 2.1 2.8 2 2.8 3.8 -3.9 c2.1 -2.1 19 -19.7 37.7 -39.1z m780.2 40.1 c0 -0.3 -4.9 -12.6 -11 -27.3 -7.7 -18.6 -11 -27.8 -11 -30.5 0 -3.5 0.8 -5 6.3 -11.2 5.7 -6.6 6.5 -7.2 10 -7.3 2.8 0 13.8 4.4 41.3 16.4 l37.4 16.3 1.8 -3.1 c1.1 -1.7 9.7 -14.9 19.2 -29.4 l17.3 -26.3 -27.6 -27.7 c-32.1 -32.1 -30.4 -28.9 -24 -44.9 l3.6 -9.3 4.1 0 c2.3 0 21.9 0.7 43.6 1.5 21.7 0.8 39.8 1.1 40.2 0.7 0.8 -0.8 10.1 -34.3 9.6 -34.7 -0.2 -0.2 -41 5.9 -90.8 13.6 -49.8 7.6 -92.1 13.9 -94 13.9 -2.7 0 -4.5 -0.9 -7.6 -3.8 l-4.2 -3.7 -6.6 -34.9 c-3.7 -19.3 -6.8 -35.1 -6.9 -35.2 -0.1 -0.2 -17 2.5 -37.5 5.8 -35.3 5.8 -37.2 6.2 -37.1 8.2 0 1.2 10.5 52.3 23.2 113.6 l23.2 111.4 38 14.2 c40.4 15.1 39.5 14.8 39.5 13.7z m-859.8 -97.2 c0.4 -0.4 -2.4 -9.6 -6.3 -20.6 -4 -11.6 -6.9 -21.2 -6.7 -22.9 0.3 -2.9 0.5 -3 16.3 -7.3 8.8 -2.4 17.3 -4.2 18.9 -4.1 2.8 0.3 3.2 0.9 9.7 18.3 3.7 9.9 7 18.4 7.1 18.9 0.4 0.9 7.8 -1.4 7.8 -2.4 0 -0.3 -2.5 -7.7 -5.5 -16.4 -3 -8.6 -5.5 -17.4 -5.5 -19.5 l0 -3.8 14 -5.2 c7.7 -2.9 15.2 -5.1 16.7 -4.9 2.5 0.3 2.9 1.3 9.1 21.3 3.6 11.6 6.7 21.2 6.8 21.4 0.3 0.3 9.4 -1.8 10.2 -2.4 0.3 -0.2 -18.7 -51.6 -19.4 -52.4 -0.4 -0.4 -94.6 29.9 -95.6 30.8 -0.5 0.4 11.2 39.2 15.7 51.9 0.4 1.2 5.1 0.8 6.7 -0.7z m-59.3 -77 c-0.6 -3.4 -1.4 -6 -1.6 -5.7 -0.2 0.2 0.1 3.2 0.8 6.5 0.6 3.4 1.4 6 1.6 5.7 0.2 -0.2 -0.1 -3.2 -0.8 -6.5z m77.8 -13.6 c26.3 -4.1 49 -7.7 50.4 -8.1 l2.7 -0.5 -1.3 -5.1 c-0.8 -2.7 -1.5 -5.2 -1.7 -5.3 -0.2 -0.2 -8.4 1.2 -18.3 3.1 -21.6 4.1 -23.3 4.2 -24 1.2 -1.2 -5.5 -7.5 -44.9 -7.5 -47.2 0 -3 -2 -2.4 22.8 -7 10.1 -1.9 18.5 -3.6 18.7 -3.7 0.3 -0.4 -1.5 -12.1 -2 -12.7 -0.3 -0.3 -98.7 15.7 -99.2 16.2 -0.2 0.2 0 3.7 0.4 7.8 l0.8 7.5 19.5 -4.3 c23.1 -5.1 25.8 -5.3 26.5 -2.1 1.4 6.2 7.5 43.6 7.5 45.9 0 2.3 -0.5 2.8 -3.2 3.3 -1.8 0.3 -12.2 2.1 -23.1 3.9 -10.8 1.8 -20 3.6 -20.3 3.9 -0.8 0.8 1.6 10.7 2.6 10.7 0.5 0 22.4 -3.4 48.7 -7.5z m898.3 -38.6 c34.9 -5.6 63.7 -10.6 63.8 -11.1 0.2 -0.4 1.4 -0.8 2.6 -0.8 2.1 0 2.4 -0.6 3 -5.7 0.4 -3.2 1.7 -11.6 3 -18.8 5.1 -27.8 6.1 -38.4 6.1 -68.5 0 -32 -1.1 -41.8 -7.2 -66.5 -7.3 -29.4 -18.9 -55.5 -36.6 -82.2 -6.4 -9.7 -7.8 -10.6 -12.9 -8.3 -1.3 0.6 -30.3 5.3 -64.6 10.4 -34.3 5.1 -62.7 9.7 -63.2 10.2 -1.1 1.1 6.2 46 7.7 47.5 0.8 0.8 3.2 0.8 8.1 0 3.9 -0.6 8.7 -1.1 10.6 -1.1 3.4 0 3.5 0.1 4.5 5.3 6.9 34.4 26.1 137.3 26.1 140 l0 3.4 -13.1 3.4 c-7.3 1.9 -13.8 3.9 -14.5 4.4 -1 0.8 -0.4 5.6 3.2 24 2.4 12.7 4.6 23.6 4.9 24.4 0.3 0.8 1.4 1.1 2.8 0.8 1.2 -0.3 30.8 -5.1 65.7 -10.8z m112.6 -19 c5.8 -1 6.2 -1.3 6.8 -4.2 8.1 -39 10 -55.7 10.1 -89.2 0 -32.6 -1 -42.2 -7.2 -67 -6 -24.1 -16.2 -48.7 -28.9 -69.9 -3.2 -5.5 -7.2 -12.3 -8.9 -15.2 -1.6 -2.9 -3.4 -5.3 -4 -5.4 -1.2 -0.3 -18.3 1.9 -20.7 2.6 -1.4 0.4 -1 1.5 2.7 6.7 21 30.2 36.5 69.4 42 106.2 3.8 25.6 3.8 65.2 -0.1 95 -1.3 10.2 -5.4 34.8 -6.8 40.9 -0.5 2 0.7 2 15 -0.5z m45.3 -7.9 c6.3 -1.1 11.7 -2.3 12.1 -2.7 0.8 -1 6.3 -32.3 8.7 -49.3 2.5 -18.5 2.5 -66 -0.1 -82.5 -2.4 -15.9 -7.8 -37.4 -12.8 -51 -10.5 -28.6 -31.6 -65.5 -37.5 -65.5 -4.2 0 -17.8 2.2 -18.7 3.1 -0.5 0.5 1.2 4.1 4.1 8.6 21.4 33.3 34.4 66.8 39.8 102.8 3.8 25.6 3.8 65.2 -0.1 95 -1.4 10.7 -5.6 35.4 -7.1 41.3 -0.3 1.2 -0.4 2.2 -0.2 2.2 0.2 0 5.5 -0.9 11.8 -2z m52.1 -10 c16 -2.5 18 -3.2 18 -6.2 0 -1.3 1.1 -7.9 2.5 -14.8 5.6 -28.8 6.9 -42.5 7 -73.5 0 -32.6 -1 -42.2 -7.2 -67 -7 -28.1 -19.9 -57.4 -35.5 -80.7 -2.1 -3.1 -3.8 -6.4 -3.8 -7.2 0 -0.8 -0.3 -1.7 -0.8 -2 -0.4 -0.2 -7.7 0.5 -16.3 1.7 -17 2.4 -16.8 2.3 -12.3 8.2 3.4 4.6 11.1 18 16.4 28.5 11 21.9 19.8 49.9 23.5 74.5 3.6 24.2 3.8 64.6 0.4 91.5 -1.9 15.3 -6.7 42.5 -8.5 48.3 -0.5 1.5 -0.2 1.8 1.3 1.4 1 -0.3 7.9 -1.5 15.3 -2.7z m-348 -28 c41 -6.5 55 -8.9 55 -9.3 -0.3 -3.6 -16 -80.1 -16.6 -80.7 -0.9 -0.9 -102.8 14 -104 15.3 -0.6 0.5 12.8 67.4 15.7 79 0.8 3.1 1.3 3.6 3.2 3.2 1.2 -0.2 22.2 -3.6 46.7 -7.5z m-29 -109.5 c23.4 -3.1 43.2 -6 44.1 -6.3 1.4 -0.6 0.8 -4.9 -5.2 -35.7 -3.8 -19.2 -6.8 -37 -6.8 -39.5 -0.1 -3.2 0.5 -5.3 2.2 -7.2 2.2 -2.7 2.6 -2.8 106.2 -18.4 57.2 -8.7 104.1 -15.8 104.3 -16 0.3 -0.1 -11.7 -30.6 -12.2 -31.2 -0.2 -0.1 -18.7 4 -41.1 9.3 -22.5 5.2 -42 9.5 -43.4 9.4 -3.7 0 -16.1 -17.3 -16.1 -22.4 0 -2.9 3.9 -9.3 22.6 -37.5 l22.7 -33.9 -3.3 -3.8 c-10 -11.4 -42.6 -45.3 -43.6 -45.3 -0.6 0 -26.7 36.1 -57.9 80.3 -31.3 44.1 -71.5 100.6 -89.3 125.6 -17.8 24.9 -32.6 45.9 -32.8 46.5 -0.3 0.7 0.9 7.8 2.6 15.8 1.6 8 3 14.8 3 15.2 0 0.9 -1.9 1.1 44 -4.9z m-596.3 -217.7 c1.8 -1.3 3.3 -2.9 3.3 -3.6 0 -0.7 -4 -14.7 -9 -31 -4.9 -16.4 -9 -31 -9 -32.5 0 -2.3 0.4 -2.7 2.8 -2.7 1.5 0 16.4 2.1 33.1 4.6 l30.3 4.6 3.3 -3.2 3.3 -3.2 -37.1 -31.5 c-20.5 -17.4 -38.4 -32.7 -39.8 -34 l-2.6 -2.4 -2.2 3.7 c-1.4 2.4 -1.8 4 -1.2 4.8 0.5 0.6 13.3 10.8 28.5 22.6 25.8 20.2 27.5 21.7 27.6 24.8 0 3.9 2.4 3.9 -32.8 0.9 -25.4 -2.2 -26.4 -2.2 -27.6 -0.5 -1.1 1.5 -0.3 5.3 5.5 24.6 3.8 12.5 6.9 24.4 6.9 26.5 0 3.6 -0.1 3.7 -3.4 3.7 -3 0 -6.5 -2.7 -29.9 -22.9 l-26.5 -22.9 -2 2.7 -2 2.7 38 33.2 c20.9 18.3 38.2 33.2 38.6 33.2 0.3 0 2.1 -1 3.9 -2.2z"/>
  <path d="M400.9 1187.1 c-10.9 -3.5 -13.5 -5.6 -25.1 -21 -8.4 -11.2 -10.8 -15.1 -10.8 -17.5 0.1 -2.9 1.8 -4.3 32.8 -25.6 24.7 -17 33.6 -22.5 36.2 -22.8 3.4 -0.3 3.7 0 9.7 8.6 3.3 4.9 8.1 12.6 10.5 17.2 l4.3 8.2 0 12.7 c0 12.5 -0.1 12.8 -3.4 19.4 -7.6 14.9 -21.5 22.8 -40 22.6 -5.4 0 -10.7 -0.7 -14.2 -1.8z"/>
  <path d="M348.2 1071.3 c-4 -8.7 -7.2 -17 -7.2 -18.5 0 -1.6 0.1 -2.8 0.3 -2.8 0.1 0 11.2 -1.1 24.7 -2.5 32.1 -3.3 30.2 -3.3 29.8 1 -0.3 2.9 -2.8 6.1 -16.8 21 -15.4 16.4 -16.6 17.5 -20 17.5 l-3.7 0 -7.1 -15.7z"/>
  <path d="M1217.3 785 c-5.5 -1.2 -9.1 -3.1 -13 -7.2 -4.9 -5 -6.3 -9.5 -6.3 -19.5 0 -10.1 1.7 -14.9 7.1 -20 5.2 -4.9 9.6 -6.3 19.6 -6.3 10.5 0 15.1 1.8 20.4 7.7 4.7 5.1 6.3 10 6.3 18.8 0 3.9 -0.6 8.7 -1.3 10.9 -1.8 5.1 -7.6 11.5 -12.6 13.7 -4.9 2.2 -14.6 3.1 -20.2 1.9z"/>
  <path d="M836.5 622.9 c-10.4 -0.9 -19.3 -1.7 -19.7 -1.8 -3.6 -0.5 1.4 -11.5 57.1 -128.3 31.8 -66.7 58.9 -123.5 60.2 -126.2 l2.4 -4.8 5.5 0.7 c3 0.3 10.5 1.3 16.5 2 21.7 2.7 20.5 2.4 20.5 5.9 0 2 -20.5 46.9 -58.7 128.8 l-58.8 125.8 -3 -0.1 c-1.6 -0.1 -11.5 -1 -22 -2z"/>
  <path d="M753.8 618.3 l-9.8 -0.4 0 -3.6 c0 -2.8 13.8 -30.8 62.6 -126.5 l62.6 -122.8 4.7 0 c2.5 0 10.5 -0.7 17.6 -1.5 17.5 -2 16.5 -2.1 16.5 1.8 0 2.2 -18.4 41.4 -60.3 128.2 l-60.3 125 -12 0.1 c-6.5 0 -16.3 -0.1 -21.6 -0.3z"/>
 </g>
 <g fill="#b7b7b7">
  <path d="M932.6 1392.5 c-23 -8.4 -42.3 -15.8 -42.8 -16.3 -1.1 -1.1 -35.8 -155.4 -35.8 -159.3 0 -2.1 6 -8.1 34.2 -34 18.8 -17.3 35.1 -32.1 36.1 -32.9 1.8 -1.5 1 -5.3 -24.2 -115 -27.1 -118.3 -29 -126.5 -34 -144.4 -2.7 -9.7 -2.9 -11.2 -1.6 -13.5 1.2 -2.3 29.1 -42.1 64.7 -92.1 7.2 -10.2 21.4 -30.3 31.5 -44.8 10.2 -14.5 18.7 -26.2 18.9 -25.9 0.2 0.2 2.2 8.9 4.4 19.3 2.1 10.4 5.7 27 7.9 36.9 2.2 9.9 6.2 28.8 9 42 21.1 100.5 63 297.7 63.3 298 0.2 0.1 20.3 7.5 44.7 16.3 24.4 8.9 44.9 16.6 45.4 17.1 1.1 1.1 30.7 129.4 30.7 133.2 0 2.2 -6.3 8.7 -35.6 36.8 -35.2 33.7 -38.8 36.5 -41 33 -0.3 -0.6 -6.2 -25.9 -13 -56.1 -6.7 -30.2 -12.4 -55.1 -12.6 -55.2 -0.2 -0.2 -16 -5.3 -35.2 -11.4 -29.6 -9.4 -35.2 -10.9 -36.5 -9.8 -14.8 12.5 -60.1 51.8 -60.5 52.4 -0.3 0.5 6.5 30.9 15 67.8 8.5 36.8 15.3 68.3 15.2 69.9 -0.3 2.6 -0.7 3 -3.3 3.2 -1.8 0.1 -19.8 -6 -44.9 -15.2z"/>
  <path d="M958 638.9 c-11.3 -2.1 -25.7 -4.8 -32 -5.9 -12.7 -2.2 -60.8 -8 -66.5 -8 -2.9 0 -3.5 -0.4 -3.5 -2.1 0 -1.3 0.5 -1.9 1.3 -1.6 0.9 0.3 19.3 -37.9 59.8 -124.5 32.1 -68.8 58.6 -125.5 58.7 -125.9 0.2 -0.5 -0.6 -0.9 -1.8 -0.9 -1.2 0 -1.8 -0.4 -1.5 -1 2.4 -3.8 35.8 4.1 66.5 15.9 9.3 3.5 35 16.4 44.7 22.5 9.9 6.1 29.6 20.7 37.7 27.9 l5 4.4 -1.7 3.6 c-1 1.9 -2.1 3.7 -2.5 3.9 -0.5 0.2 -17.8 24.2 -38.4 53.3 -79.9 112.6 -101.2 142 -103.3 142.2 -1.1 0.1 -11.2 -1.6 -22.5 -3.8z"/>
  <path d="M797.5 620.3 c-11.5 -0.5 -16.5 -1.4 -16.5 -2.8 0 -0.7 0.8 -1.5 1.8 -1.7 1.1 -0.3 21 -40.5 61.7 -124.8 33 -68.4 60.1 -124.7 60.3 -125.1 0.2 -0.4 -0.7 -0.5 -1.9 -0.2 -1.6 0.4 -2 0.2 -1.7 -0.8 0.8 -2.6 16.8 -3.6 33.1 -2.3 5.8 0.5 7.7 1.1 7.7 2.2 0 0.8 -0.6 1.2 -1.3 0.9 -0.9 -0.3 -2.2 1.2 -3.7 4.1 -6.4 13.1 -118 247.4 -118 247.8 0 0.2 0.7 0.4 1.5 0.4 0.8 0 1.5 0.7 1.5 1.5 0 1.5 -6.3 1.7 -24.5 0.8z"/>
  <path d="M720.3 617.3 l-10.3 -0.4 0 -2.6 c0 -4.3 45.8 -185.3 48.3 -190.8 5.2 -11.8 28.3 -28.7 54.7 -40.3 4.1 -1.8 8.9 -3.9 10.5 -4.7 4 -1.8 25.1 -7.9 34.2 -9.9 8.3 -1.8 16.3 -2.1 16.3 -0.5 0 0.5 -0.4 0.8 -0.9 0.5 -0.8 -0.5 -126.1 243.8 -126.1 245.7 0 0.4 0.9 0.7 2 0.7 1.3 0 1.8 0.5 1.4 1.5 -0.6 1.6 -2.9 1.6 -30.1 0.8z"/>
 </g>
 <g fill="#fff500">
  <path d="M113.4 868.3 c-1.3 -18.7 -1 -86.4 0.5 -103.8 12.2 -150.1 61 -280.7 148.8 -398.2 4.6 -6.2 9 -11.3 9.6 -11.3 0.7 0 7.7 6 15.7 13.2 8 7.3 15.7 14.2 17 15.3 1.9 1.5 36.1 37.3 37.7 39.4 0.1 0.2 0.9 -0.2 1.8 -0.9 1.3 -1.1 1.5 -0.8 1.5 1.9 0 2.5 0.4 3.1 2 3.1 1.3 0 2 0.6 1.8 1.5 -0.2 0.8 46 50.7 106 114.5 89.6 95.1 106.8 113 109 113 4.2 0 30.2 26.6 33.9 34.6 4.8 10.6 4.2 28.2 -1.4 37.3 -5.4 8.6 -12 13.2 -25.7 17.5 -29.8 9.6 -35.5 11.1 -36.9 9.4 -1.1 -1.4 -17.6 3.4 -152.9 45 -98.6 30.3 -151.8 47.1 -151.8 47.9 0 2.2 -2.8 1.5 -3.6 -0.9 -1.1 -3.5 -0.7 -70.1 0.5 -86.8 1.6 -20.9 4.7 -47.5 7.7 -64.5 1.3 -7.7 2.6 -15.8 2.9 -18 l0.5 -4 -1.1 4 c-3.2 12.5 -8.6 49.8 -10.9 75 -1.9 20.7 -2.7 53.1 -1.8 76.4 0.6 17.5 0.5 22.7 -0.5 23.3 -0.8 0.5 -1.3 0 -1.5 -1.3 -0.3 -1.5 -0.8 -1.8 -2.5 -1.3 -3.2 1 -32.4 10 -45.2 13.8 -6 1.9 -21.3 6.4 -34 10 -12.6 3.7 -23.7 6.9 -24.6 7.2 -1.5 0.4 -1.8 -1.1 -2.5 -12.3z m220.6 -67.4 c6.6 -1 7.2 -1.4 18.3 -11.1 l3.8 -3.3 2.2 -27.2 c2 -24.3 2.1 -27.3 0.7 -27.3 -0.8 -0.1 -24 -1.6 -51.5 -3.4 -27.5 -1.8 -50.1 -3.3 -50.1 -3.2 -0.1 0 0.1 2.7 0.3 5.9 l0.5 5.7 19.5 0 19.5 0 -0.7 11.8 c-0.4 6.4 -1 13.5 -1.4 15.7 l-0.6 3.9 -20 9.1 -20 9.1 0.3 4 c0.2 2.1 0.5 4.1 0.8 4.3 0.2 0.2 9.1 -3.3 19.8 -7.8 12.6 -5.4 20.4 -8.1 22.2 -7.9 2.4 0.3 3.1 1.2 5.6 7.3 l2.9 7.1 8.2 4.1 c9 4.6 10.2 4.8 19.7 3.2z m35.5 -84.1 c2.7 -11.2 10.1 -52.4 9.4 -52.8 -2.4 -1.6 -101.2 -22.1 -102 -21.3 -0.5 0.5 -2.8 10.4 -5 21.9 -2.2 11.5 -4.6 23.9 -5.3 27.6 -1.4 7.4 -1.7 6.8 4.6 8.2 3.2 0.7 2.6 2.7 7.8 -22.9 2.3 -11 4.4 -20.8 4.6 -21.7 0.8 -2.6 4.9 -2.3 21.9 2 l15 3.8 0.3 3.5 c0.1 1.9 -2 12.1 -4.7 22.6 l-4.8 19.3 3.3 0.6 c1.9 0.3 4 0.4 4.6 0.1 0.7 -0.2 3.5 -9.5 6.3 -20.7 3.2 -13.2 5.4 -20.4 6.4 -20.8 1.3 -0.5 26.8 3.1 31.4 4.4 2.4 0.7 2.2 3.1 -1.8 25.5 -1.9 10.7 -3.5 19.9 -3.5 20.6 0 1.4 2.1 2 7.2 2.2 3.1 0.1 3.9 -0.3 4.3 -2.1z m-127.7 -59.3 c0 -1.6 -0.2 -1.5 -0.8 0.5 -0.4 1.4 -0.8 3.4 -0.8 4.5 0 1.6 0.2 1.5 0.8 -0.5 0.4 -1.4 0.8 -3.4 0.8 -4.5z m154.1 -39.1 c6.2 -17.4 11.1 -31.8 10.9 -32 -0.2 -0.1 -2.2 -0.6 -4.3 -0.9 l-4 -0.7 -6 12.1 c-5.5 11.3 -6.1 12.1 -8.8 12.1 -1.6 0 -21.6 -6.1 -44.4 -13.6 -22.8 -7.5 -41.7 -13.4 -41.9 -13.2 -0.2 0.3 -0.6 1.8 -1 3.4 l-0.5 2.9 42.8 15.1 42.8 15 0.3 3 c0.2 1.8 -1.5 7.2 -4.3 13.9 -2.5 5.9 -4.4 10.9 -4.3 11 0.6 0.5 9.4 3.3 10.3 3.4 0.6 0.1 6.2 -14.1 12.4 -31.5z m33.5 -68.9 c0.4 -1.4 0.3 -3.1 -0.1 -3.8 -0.4 -0.7 -16.9 -19.9 -36.7 -42.7 -19.7 -22.8 -36 -41.6 -36.1 -41.8 -0.2 -0.2 -1.2 1 -2.3 2.6 l-2.1 2.8 7 9.9 c4.5 6.5 6.9 10.8 6.9 12.7 0 1.5 -4.4 11.6 -9.7 22.3 -11.3 22.5 -8.8 20.8 -25.8 17.6 -5.5 -1.1 -10.3 -1.7 -10.7 -1.3 -0.9 1 -2.8 8.5 -2.3 9.1 0.6 0.5 103.4 14.8 108.1 15 2.6 0.1 3.3 -0.4 3.8 -2.4z"/>
  <path d="M318.2 789.5 c-14 -4.5 -17 -12.8 -13.3 -37.3 1.1 -7.4 2.2 -13.7 2.6 -14 0.7 -0.7 42.4 4.4 43.3 5.3 0.3 0.3 0 7.5 -0.6 16.1 -1.1 14.7 -1.4 16 -4.4 21.5 -3.2 5.8 -3.5 6 -9.9 7.9 -7.5 2.3 -11.6 2.4 -17.7 0.5z"/>
  <path d="M380 537 c-13.5 -2.1 -24.6 -3.9 -24.7 -3.9 -0.2 -0.1 -0.3 -1.7 -0.3 -3.6 0 -2.7 2.2 -7.4 8.8 -18.5 8.2 -14 8.9 -15 11.7 -15 2.7 0 5.5 2.5 21.8 19.4 16 16.7 18.7 19.9 18.7 22.5 l0 3.1 -5.7 -0.1 c-3.2 -0.1 -16.8 -1.8 -30.3 -3.9z"/>
 </g>
 <g fill="#977a00">
  <path d="M221.9 850.9 c-2.7 -61.9 -0.6 -103 7.7 -153.4 12.6 -76 39.1 -150.1 77.7 -217.5 9.9 -17.3 35.2 -56.5 37.9 -58.8 1.2 -0.9 2 -0.6 4.1 1.6 l2.6 2.7 -5.8 8 c-46.6 64.9 -84.6 151.4 -102.5 233.5 -11.3 51.6 -16.6 110.9 -14.6 162.5 0.4 11.6 0.7 21.1 0.5 21.3 -0.1 0.2 -1.9 0.6 -3.9 0.9 -2.7 0.4 -3.6 0.2 -3.7 -0.8z"/>
  <path d="M312.3 801.2 l-9.2 -4.6 -2.9 -7.1 c-1.6 -3.8 -3.3 -6.9 -3.8 -6.8 -0.5 0.1 -10.1 4 -21.3 8.8 -11.3 4.7 -21 8.4 -21.6 8.1 -1 -0.3 -3.9 -14.6 -3.1 -15.3 0.2 -0.2 9.5 -4.5 20.7 -9.6 l20.4 -9.3 0.6 -3.9 c0.3 -2.2 0.9 -7.9 1.3 -12.7 l0.6 -8.8 -19.4 0 -19.4 0 -0.7 -8.6 c-0.4 -4.7 -0.5 -8.8 -0.2 -9 0.5 -0.5 108.8 6.4 109.4 7 0.2 0.2 -0.8 13.8 -2.1 30.2 l-2.6 29.9 -3.7 3.3 c-11.9 10.4 -11.2 10 -22.1 11.7 -5.6 0.8 -10.5 1.5 -10.9 1.4 -0.5 0 -4.9 -2.1 -10 -4.7z m20.6 -15.2 c6.4 -1.9 6.7 -2.1 9.8 -7.7 2.8 -5.2 3.3 -7.2 4.3 -18.7 0.6 -7.1 0.9 -13 0.7 -13.2 -0.5 -0.6 -37.1 -5.4 -37.5 -4.9 -0.2 0.1 -1.2 6.2 -2.3 13.5 -1.7 11.9 -1.8 13.7 -0.5 18.7 0.8 3 1.6 5.6 1.8 5.7 0.2 0.2 1.9 1.5 3.9 3 2.9 2.1 7.9 4.3 12.8 5.5 0.2 0.1 3.4 -0.8 7 -1.9z"/>
  <path d="M366 722.4 c-0.8 -0.1 -4.1 -0.6 -7.2 -0.9 -3.8 -0.4 -5.5 -1 -5.2 -1.8 0.8 -2.3 8.2 -45.2 7.8 -45.6 -0.8 -0.9 -26.9 -4.9 -27.5 -4.3 -0.4 0.4 -2.9 9.8 -5.7 21 -2.7 11.2 -5.2 20.5 -5.4 20.8 -0.5 0.5 -14.9 -1.4 -15.5 -2 -0.2 -0.2 2.1 -10.2 5.1 -22.2 3 -12 5.2 -22.2 4.8 -22.5 -1 -0.8 -29.6 -7.9 -30 -7.4 -0.3 0.2 -2.6 10.8 -5.3 23.6 -2.7 12.8 -5 23.4 -5.2 23.6 -0.4 0.3 -14.8 -2.5 -15.3 -3 -0.1 -0.1 0.7 -4.7 1.8 -10.2 1 -5.5 3.7 -19.2 5.8 -30.5 3.8 -19.4 5 -23 8 -23 1.1 0 106.3 23 106.6 23.3 0.2 0.2 -2.3 14 -5.6 30.8 -3.3 16.7 -6 30.5 -6 30.7 0 0.3 -4 0.1 -6 -0.4z"/>
  <path d="M377.1 651.9 c-4.6 -1.6 -8.6 -3 -8.8 -3.2 -0.2 -0.2 2.1 -6.3 5.2 -13.6 l5.4 -13.2 -2.4 -0.9 c-1.4 -0.5 -21 -7.5 -43.6 -15.4 -22.7 -8 -41.3 -14.7 -41.5 -14.9 -0.2 -0.1 0.6 -3.3 1.7 -7.1 1.3 -4.2 2.5 -6.6 3.2 -6.3 0.7 0.2 20.1 6.6 43.1 14.2 23 7.5 42.4 13.9 43 14.1 0.7 0.2 4 -5.2 7.6 -12.6 3.5 -7.1 6.5 -13 6.5 -13 0 0 3.3 0.9 7.3 1.9 4.1 1.1 7.6 2.1 7.8 2.4 0.2 0.2 -4.6 14.3 -10.6 31.3 -13.8 38.4 -14.1 39.4 -14.9 39.3 -0.3 0 -4.4 -1.4 -9 -3z"/>
  <path d="M370.1 547.9 c-31.6 -4.3 -57.6 -8 -57.7 -8.2 -0.3 -0.3 4.3 -15.7 4.9 -16.3 0.2 -0.2 6.1 0.7 13.2 2.1 7.1 1.3 13 2.4 13.1 2.2 0.1 -0.1 4.5 -8.8 9.7 -19.3 l9.6 -19.2 -7.9 -11.2 c-4.4 -6.2 -7.6 -11.8 -7.3 -12.4 0.4 -0.6 2.4 -3.5 4.4 -6.3 l3.6 -5.3 37.9 43.7 c20.9 24.1 38.7 44.7 39.7 45.9 1.7 2.2 1.6 2.5 -0.2 7.1 -1.2 3.2 -2.5 4.9 -3.7 5 -1.1 0.1 -27.7 -3.4 -59.3 -7.8z m24.3 -29.4 l-18.8 -19.4 -8.9 15 c-4.9 8.3 -8.6 15.3 -8.3 15.7 0.7 0.6 47.4 7.9 51.9 8.1 2.5 0.1 0.8 -2 -15.9 -19.4z"/>
 </g>
 <g fill="#a7391d">
  <path d="M628 962.6 c-20.6 -4.8 -39.7 -9.7 -69 -17.7 -33.8 -9.3 -35 -9.7 -35 -11.9 0 -1.1 0.7 -1.7 1.7 -1.6 1.5 0.1 2.1 -3.7 4.9 -32.4 5.2 -52.6 7.3 -71.3 10.2 -93 3.4 -26.3 3.4 -33.6 -0.1 -41.3 -1.4 -3.2 -3.6 -7 -4.7 -8.4 -1.1 -1.4 -1.8 -2.8 -1.6 -3 0.8 -0.8 26.3 -8.4 32.9 -9.8 17.2 -3.6 28 -13.4 32.3 -29.1 1.5 -5.5 1.5 -7.2 0.5 -11.9 -2.2 -9.6 -5.5 -14.2 -21.9 -30.4 l-15.7 -15.4 6 -0.9 c8.7 -1.3 13.7 -0.5 22.1 3.7 13 6.4 22.5 18.4 25.9 32.6 0.8 3.5 1.5 10.7 1.5 15.9 0.1 15.5 5.2 26.9 16.2 36.3 6.4 5.4 11.9 8.3 19.6 10.2 4.7 1.2 50.2 4.5 62 4.5 3 0 3.2 0.2 3.2 3.8 0 2.3 -13 41.8 -33.8 103.2 l-33.9 99.5 -4.4 0.2 c-2.4 0.1 -10.9 -1.3 -18.9 -3.1z"/>
  <path d="M690 615.5 c0 -0.8 0.6 -1.5 1.3 -1.5 0.8 0 2.2 -0.9 3.2 -2 1.8 -1.9 1.7 -2 -0.4 -2 -1.3 0 -2.1 -0.3 -1.9 -0.7 0.3 -0.5 1.1 -2.2 1.8 -4 0.8 -1.9 2.3 -3.3 3.4 -3.5 1.9 -0.3 4.1 -8.6 22.8 -86.3 11.4 -47.3 20.7 -86.3 20.8 -86.7 0 -0.5 -0.7 -0.8 -1.5 -0.8 -1.8 0 -1.8 -0.4 -0.3 -4.7 0.9 -2.4 1.8 -3.3 3.4 -3.3 1.8 0 3 -1.4 5.4 -5.9 1.7 -3.2 6 -9.5 9.6 -13.9 27.3 -34.1 78.1 -51.2 152.4 -51.2 58.2 0 128 17.2 179 44.2 19.6 10.3 36.5 23.3 43.7 33.4 l2.2 3.1 -3.7 4.4 c-2 2.5 -4.4 5.6 -5.3 6.9 l-1.6 2.5 -6.5 -5.7 c-9.3 -8.2 -26.4 -20.8 -37 -27.4 -9.8 -6.1 -35.5 -19 -44.8 -22.5 -28.7 -11 -55.7 -17.7 -84.5 -21 -14.4 -1.6 -44.1 -1.7 -58 -0.2 -6.6 0.7 -14 1.5 -16.5 1.7 -2.5 0.2 -5.2 0.6 -6 0.9 -0.8 0.3 -5.1 1.3 -9.5 2.2 -9.2 1.9 -30.6 8 -35 10 -1.6 0.8 -6.4 2.9 -10.5 4.7 -26.4 11.6 -49.5 28.5 -54.7 40.3 -1.3 2.8 -12.6 46.1 -25.2 96.3 -21.2 84.3 -22.8 91.2 -20.9 91.2 1.1 0 1.8 0.5 1.6 1.3 -0.3 0.8 -4.2 1.3 -13.6 1.5 -11.3 0.2 -13.2 0 -13.2 -1.3z"/>
 </g>
 <g fill="#515151">
  <path d="M819.5 1237.8 c-8.8 -1 -16.3 -2.2 -16.7 -2.6 -0.4 -0.4 -2.3 -17.8 -4.3 -38.7 -1.9 -20.9 -3.8 -39.4 -4 -41 l-0.5 -3.1 -13.1 -2.5 -13 -2.6 -3.3 5.1 c-1.7 2.8 -11.5 18.5 -21.7 35 -10.1 16.4 -18.9 30 -19.6 30.3 -1.3 0.5 -66.6 -32.8 -71 -36.2 l-2.8 -2.3 4 -5.5 c2.2 -3.1 21.1 -29.7 42 -59.2 36 -50.8 52.5 -74.1 91.2 -128.5 49.4 -69.7 59.8 -83.8 60.5 -82.1 0.4 0.9 13.6 54.2 29.3 118.5 l28.6 116.9 -24.3 23.6 c-13.4 13 -29.3 28.3 -35.3 34.1 -6.1 5.8 -11.1 11.5 -11.3 12.6 -0.2 1.2 0.8 8.1 2.2 15.3 1.4 7.2 2.6 13.6 2.6 14.1 0 1.2 0.2 1.2 -19.5 -1.2z"/>
  <path d="M1122 1111.5 l-43.5 -16.1 -23.1 -111.4 c-12.8 -61.3 -23.5 -113.8 -23.8 -116.5 l-0.7 -5.1 40.8 -6.6 c22.4 -3.7 40.8 -6.6 40.9 -6.5 0.1 0.1 3.3 16.3 7 36.1 l6.9 35.9 4.1 3.3 4.1 3.4 94.8 -14.5 c52.2 -8 95 -14.4 95.2 -14.1 0.5 0.5 -10.7 40.9 -11.6 41.9 -0.4 0.4 -20.3 0.1 -44.1 -0.7 -23.8 -0.9 -43.4 -1.5 -43.6 -1.3 -0.6 0.6 -7.4 18.2 -7.4 19.2 0 0.5 12.8 13.8 28.5 29.5 17.6 17.5 28.4 29.1 28.2 30 -0.6 2.1 -39.5 61.3 -41 62.4 -0.9 0.5 -14.9 -5.1 -40.6 -16.3 -21.6 -9.5 -39.6 -17.1 -40 -16.9 -1.4 0.5 -13.1 14.2 -13.1 15.3 0 0.5 5.9 15.2 13 32.4 7.2 17.3 12.9 31.8 12.8 32.1 -0.2 0.3 -19.9 -6.6 -43.8 -15.5z"/>
  <path d="M1002.6 728.2 c-0.3 -0.5 -2.1 -8.8 -4.1 -18.5 l-3.7 -17.6 33.4 -46.8 c18.4 -25.8 59.4 -83.6 91.3 -128.5 l57.9 -81.7 3.5 1.9 c4.5 2.3 49.6 50.4 49.5 52.8 0 0.9 -10.5 17.4 -23.3 36.5 -12.8 19.2 -23.1 35.2 -22.9 35.6 0.2 0.4 3.2 4.9 6.8 9.9 4.3 5.9 7 8.9 8 8.7 13.1 -3.7 84.4 -19.5 85 -18.8 1.4 1.4 15.1 36.5 14.5 37.1 -0.3 0.3 -47.4 7.6 -104.7 16.3 -57.4 8.7 -104.9 16.2 -105.6 16.6 -0.7 0.4 -2 1.9 -2.9 3.3 -1.4 2.4 -1 5.3 6 41.5 4.1 21.5 7.4 39.1 7.2 39.3 -0.2 0.2 -91.6 12.9 -95.2 13.2 -0.1 0 -0.4 -0.4 -0.7 -0.8z"/>
 </g>
 <g fill="#8c2e16">
  <path d="M730 979.4 c-19.3 -2.1 -39.5 -5 -63.2 -9.1 -18.4 -3.2 -21.8 -4 -21.8 -5.4 0 -1 0.7 -1.9 1.7 -2.1 1.2 -0.2 10.2 -25.5 35.5 -99.8 18.6 -54.7 33.8 -99.8 33.8 -100.2 0 -0.5 -0.7 -0.8 -1.5 -0.8 -0.8 0 -1.5 -0.7 -1.5 -1.5 0 -0.8 0.3 -1.5 0.8 -1.5 4.4 0 178.6 10 178.8 10.3 0.2 0.2 -32.3 46.4 -72.3 102.8 -39.9 56.3 -73.5 103.9 -74.7 105.6 -1.2 1.8 -2.3 3.2 -2.6 3.2 -0.3 -0.1 -6.1 -0.7 -13 -1.5z"/>
 </g>
 <g fill="#782812">
  <path d="M640.5 753.8 c-5.8 -3 -14 -10.3 -17.7 -15.5 -5.3 -7.7 -7.8 -16.4 -7.8 -27.3 -0.1 -17 -4.5 -29 -14.4 -39.2 -8.4 -8.6 -21.9 -14.6 -33.6 -14.9 -2.7 -0.1 1 -0.9 9 -1.9 9.3 -1.3 21.5 -1.9 39.6 -2 l26.2 -0.2 6.3 3.3 c3.5 1.9 8.6 5.8 11.5 8.7 9.9 10.1 14.4 22.2 14.4 38.8 0 5.1 0.6 11.2 1.5 14 0.8 2.7 1.5 6.1 1.5 7.5 0 2.3 -0.6 2.8 -4.6 3.8 -6.4 1.6 -11.7 4.5 -16.6 8.9 -4.3 3.8 -8.8 12 -8.8 16 0 2.7 -1.3 2.7 -6.5 0z"/>
  <path d="M559 746.3 c0 -0.5 4.2 -2.2 9.3 -3.7 10.2 -3.2 14.5 -5.4 19.6 -10 7.5 -6.9 11.7 -17.8 10.8 -27.7 -0.8 -9.5 -4.7 -16.3 -14.3 -25.8 -4.7 -4.6 -8.3 -8.6 -8 -8.8 1.1 -1.1 9.9 3.9 14.5 8.2 11.7 11 15.7 25.7 11.1 40.8 -4.9 15.9 -18.5 26.4 -35.7 27.5 -4.2 0.3 -7.3 0.1 -7.3 -0.5z"/>
  <path d="M574 607 c-1.3 -1.3 -2 -3.3 -2 -5.6 0 -1.9 2.5 -27.7 5.5 -57.2 3 -29.5 6 -58.4 6.5 -64.2 0.5 -5.8 1.4 -14.3 2 -19 0.5 -4.7 1.4 -13.4 1.9 -19.3 1.4 -16.7 3.7 -18.7 18.5 -16.7 8.3 1.1 9.1 1.1 10.3 -0.6 0.7 -0.9 1.5 -1.5 1.8 -1.3 0.3 0.3 -1.1 29.8 -3 65.5 l-3.4 65.1 -15.7 25.4 c-8.6 14 -16.1 26.4 -16.7 27.7 -1.3 2.7 -3.1 2.8 -5.7 0.2z"/>
  <path d="M615 536.3 c-0.1 -1 1.2 -26.4 2.7 -56.6 l2.8 -54.7 2.2 0 c1.6 0 2.1 0.4 1.7 1.5 -0.5 1.1 0.1 1.5 2.4 1.5 6 0 47.5 6.1 50.7 7.4 4.5 1.9 5 3.1 2.7 6.9 -1.1 1.7 -14.7 24 -30.2 49.5 -28.2 46 -28.4 46.2 -31.7 46.2 -2.5 0 -3.3 -0.4 -3.3 -1.7z"/>
 </g>
 <g fill="#6c2215">
  <path d="M672 1045.4 c-39.8 -6.1 -56.1 -9.9 -107.5 -24.7 -25 -7.3 -29 -8.7 -29.3 -10.5 -0.3 -1.7 -2.9 -2.7 -17.3 -6.7 -9.3 -2.7 -16.9 -5.3 -16.9 -5.9 0 -4.9 7.3 -69.3 8 -70 0.5 -0.5 6.6 0.9 14.2 3.2 29.1 8.9 87.4 24.3 112.8 29.8 6.3 1.4 12.4 2.8 13.5 3 18 3.9 70.1 11.7 86.9 13 4.7 0.4 8.6 1 8.6 1.3 0 0.3 -5.2 7.8 -11.5 16.6 -6.3 8.8 -17.5 24.4 -24.7 34.7 l-13.3 18.8 -4 -0.1 c-2.2 -0.1 -11 -1.2 -19.5 -2.5z"/>
 </g>
 <g fill="#5d1c0b">
  <path d="M682.8 728.6 c-11.5 -1.1 -15.2 -2.2 -11.1 -3.2 2 -0.5 2 -0.8 0.7 -5.1 -0.8 -2.6 -1.4 -8.7 -1.4 -13.7 0 -5 -0.7 -12 -1.5 -15.5 -4.2 -17.6 -18.1 -31.8 -35.6 -36.5 -4.4 -1.2 -4.8 -1.5 -2.3 -1.5 8.5 -0.2 9.1 -0.7 13.8 -10.6 7.2 -15.2 15 -21 35.2 -26 11.6 -2.9 22.1 -3.1 70.9 -1.5 59.1 2 122.1 7 165.5 13.1 6.2 0.8 54.8 9.6 64.3 11.5 2.9 0.6 2.9 0.6 0.9 2.7 -1.1 1.2 -3.2 4.5 -4.8 7.2 -1.5 2.8 -5 8.1 -7.7 11.8 -4.4 6 -5.2 6.7 -7.6 6.2 -5.2 -1.1 -46 -7.6 -62.1 -10 -49.5 -7.1 -87.5 -9.1 -128 -6.4 -17.3 1.1 -19.5 1.7 -22.6 6.4 -0.9 1.4 -3.8 12.2 -6.4 24.1 -2.7 11.9 -5.2 22 -5.7 22.4 -0.4 0.4 -7.7 6.4 -16.2 13.4 l-15.3 12.6 -5.7 -0.2 c-3.1 0 -10.9 -0.6 -17.3 -1.2z"/>
  <path d="M607.5 612 c-14.8 -1 -28.4 -2.3 -30.2 -3 l-3.1 -1.1 2.1 -3.7 c1.2 -2 9 -14.9 17.4 -28.6 8.4 -13.7 15.3 -25.2 15.3 -25.7 0 -0.5 0.7 -0.9 1.5 -0.9 1.8 0 1.9 1.1 0.4 28.3 -0.9 15.8 -0.9 21.1 0 22 1 1 36.7 4.5 47.9 4.6 2.1 0.1 3.2 0.6 3.2 1.6 0 0.8 -0.7 1.5 -1.5 1.5 -0.8 0 -1.5 0.7 -1.5 1.5 0 0.8 -0.9 2.4 -2 3.5 -1.8 1.8 -3.2 2 -12.2 1.9 -5.7 -0.1 -22.4 -1 -37.3 -1.9z"/>
  <path d="M632 600.4 c-8 -0.7 -15.7 -1.3 -17.2 -1.3 -2.8 -0.1 -2.8 -0.2 -2.8 -6.8 0 -3.8 0.7 -18.6 1.5 -33.1 1.1 -19.4 1.8 -26.8 2.9 -28.4 1.4 -2 1.5 -1.9 1.8 1.2 0.3 2.9 3.5 -1.9 28.7 -43.1 15.6 -25.5 29.3 -47.9 30.4 -49.7 1.7 -2.9 2.2 -3.2 3.4 -2 0.7 0.8 1.6 3 1.9 4.9 0.3 2 -4.2 34.5 -11.1 79.9 -10.4 68.2 -11.5 76.6 -10.1 77.6 0.9 0.6 1.6 1.4 1.6 1.8 0 0.9 -14.6 0.5 -31 -1z"/>
 </g>
 <g fill="#482410">
  <path d="M600.1 1133 c-33.8 -7.1 -57.4 -33.2 -65.6 -73 -2.2 -10.5 -2.5 -32.2 -0.6 -43.6 l1.3 -8.1 24.5 7.1 24.5 7 -0.9 7.1 c-2.6 22.4 2.1 52.9 10.9 69.8 7.9 15.1 20.5 24.3 37.1 26.9 4.2 0.7 7.7 1.5 7.7 1.8 -0.1 0.3 -1 1.6 -2.1 3 -2.1 2.4 -2.4 2.5 -17.3 2.7 -8.3 0.1 -17.1 -0.2 -19.5 -0.7z"/>
 </g>
 <g fill="#451306">
  <path d="M771.5 765.5 c-114 -6.5 -117 -6.7 -123.6 -8.7 -3.6 -1 -3.9 -1.4 -3.9 -4.7 0 -8.7 8.1 -19 18.6 -23.8 7.1 -3.2 13.6 -3.8 27.8 -2.4 10.4 1 12.2 1 14.2 -0.4 2.2 -1.4 10.7 -0.9 104.7 6.6 56.2 4.5 102.5 8.5 102.9 8.8 0.3 0.3 -4.2 7.4 -10 15.8 l-10.7 15.2 -4.5 -0.1 c-2.5 0 -54.4 -2.9 -115.5 -6.3z"/>
  <path d="M826.1 712.9 c-51.4 -4.9 -93.7 -9.1 -93.9 -9.4 -0.3 -0.3 0.2 -1.1 1.2 -1.8 1.2 -0.9 3.1 -7.6 6.6 -23 4.8 -21.8 6.1 -25.5 10.3 -28.1 4.8 -3.2 64 -4.8 94.2 -2.6 26.8 2 52.6 5.3 97 12.5 12.1 2 22.8 3.9 23.7 4.3 1.4 0.6 -1.9 5.7 -18.3 28.7 -19.8 27.9 -19.9 28 -23.6 28.2 -2.1 0 -45.8 -3.9 -97.2 -8.8z"/>
 </g>
 <g fill="#280f06">
  <path d="M628.5 1129.4 c-31.4 -5.4 -46.1 -29.8 -49 -80.9 -0.5 -9.5 0.6 -24.9 2 -26.3 0.2 -0.2 7.7 1.7 16.7 4.2 26.2 7.4 54.1 12.9 89.6 17.8 l9.3 1.3 -5.6 8 c-19.6 28 -53.7 76.1 -54.3 76.6 -0.4 0.3 -4.3 0 -8.7 -0.7z"/>
  <path d="M808.5 735.4 c-55.5 -4.5 -102.1 -8.3 -103.4 -8.3 -1.8 -0.1 1.2 -3 13.4 -13.1 8.7 -7.1 16.1 -13 16.5 -13 3.5 0 192.4 18.1 192.8 18.5 0.6 0.6 -16 23.8 -17.3 24 -0.5 0.2 -46.4 -3.5 -102 -8.1z"/>
  <path d="M688 609.3 c-47.5 -3.2 -76.9 -5.6 -78.8 -6.4 -2 -0.8 -2.2 -1.5 -2.2 -8.1 0.1 -4 2 -43.5 4.4 -87.8 4.5 -85.1 4.4 -83.8 9.5 -88.4 1.1 -1 4.1 -2.1 6.6 -2.4 4.2 -0.4 115.5 3.7 116.3 4.4 0.2 0.1 -0.1 1.9 -0.8 3.8 -1.1 3.6 -1.2 3.6 -6.8 3.6 -3.1 0 -25 -0.9 -48.7 -2 -54.9 -2.5 -60 -2.5 -62.3 -0.2 -1.5 1.5 -2.2 10.6 -6.1 85.5 -2.4 46.1 -4.2 84 -4 84.2 0.5 0.4 45.8 4.1 67.8 5.5 8.5 0.5 15.6 1.2 15.9 1.4 0.2 0.3 -0.1 2.1 -0.8 4 -0.9 2.8 -1.7 3.6 -3.3 3.4 -1.2 -0.1 -4.2 -0.3 -6.7 -0.5z"/>
 </g>
 <g fill="#000000">
  <path d="M742.3 1450.5 c-97.6 -20.9 -185.8 -61.7 -268 -124.1 -13.1 -9.9 -41.5 -35.6 -60.4 -54.4 -43.6 -43.4 -76.4 -86.3 -107.6 -140.5 -44.6 -77.5 -74.2 -171.1 -82.8 -261.9 -1.9 -20.3 -1.9 -20.3 0.5 -21 6.2 -1.8 5.7 -2.5 6.4 8.1 0.4 5.4 1.4 15.7 2.2 22.8 19.6 172.5 106.6 328.9 242.7 436.8 79.8 63.3 173.2 106.9 271.5 126.9 11.4 2.3 20.9 4.3 21.1 4.4 0.2 0.2 0 1.9 -0.3 3.9 -0.6 2.8 -1.1 3.5 -2.9 3.4 -1.2 0 -11.3 -2 -22.4 -4.4z"/>
  <path d="M745.6 1424.9 c-3.2 -0.5 -6.1 -1 -6.2 -1.2 -0.2 -0.2 4.1 -20.8 9.5 -45.8 5.5 -25 9.7 -45.6 9.5 -45.8 -0.2 -0.2 -5.9 -1.5 -12.5 -2.7 -6.7 -1.3 -12.4 -2.5 -12.6 -2.7 -0.4 -0.4 3.7 -18.7 4.2 -18.7 1 0 72.9 15.1 73.2 15.4 0.4 0.4 -1.6 18.8 -2.1 19.3 -0.2 0.2 -7.5 -1.2 -16.2 -3.1 -8.7 -1.9 -16.1 -3.3 -16.3 -3 -0.2 0.2 -4.8 19.4 -10.2 42.6 -5.4 23.3 -10.1 43.3 -10.4 44.6 -0.6 2.4 -0.8 2.4 -9.9 1.1z"/>
  <path d="M682.3 1406.8 c-3.5 -1 -6.3 -2.2 -6.3 -2.6 0 -0.4 3.8 -10.3 8.4 -22.1 l8.5 -21.3 -4.2 -1.7 c-33.6 -13.2 -40.3 -15.7 -40.9 -15.2 -0.4 0.3 -4.6 9.8 -9.4 21.1 -4.8 11.3 -8.8 20.6 -8.9 20.7 -0.1 0.2 -3.5 -1 -7.6 -2.6 -5.7 -2.2 -7.4 -3.3 -7.3 -4.7 0.2 -1.7 38.8 -96.1 39.7 -97.1 0.4 -0.3 16.7 5.6 16.7 6.2 0 0.1 -4.3 9.3 -9.5 20.4 -6.2 13.4 -9 20.3 -8.2 20.7 16.4 6.2 45.4 16 45.9 15.5 0.3 -0.3 4 -9.3 8.1 -19.9 4.2 -10.7 7.8 -19.6 8 -19.8 1 -1 14.8 2.8 14.4 3.9 -0.3 0.7 -9.3 22.9 -20.1 49.4 -10.8 26.6 -19.6 48.7 -19.6 49.2 0 1.8 -1.5 1.8 -7.7 -0.1z"/>
  <path d="M565.5 1350.9 c-6.6 -1.3 -17.9 -6.9 -23.5 -11.6 -32.1 -26.6 -26.1 -75.6 11.5 -93.8 12.5 -6 27.9 -7 40.9 -2.5 20.6 7.1 35.8 25.8 38.2 47.1 l0.6 5.6 -7.1 1.2 c-4 0.6 -7.6 0.9 -8 0.6 -0.5 -0.2 -1.1 -3 -1.5 -6.1 -1.8 -15.2 -12.5 -27.8 -27.5 -32.5 -14.8 -4.6 -31.2 0.1 -41.7 11.9 -1.3 1.5 -3.9 5.6 -5.6 9.2 -3 5.9 -3.3 7.2 -3.3 16 0 8.7 0.3 10.1 3.2 16 1.7 3.6 4.3 7.7 5.6 9.2 8.5 9.3 20.9 14.4 32.5 13.5 7.3 -0.5 18.2 -4.2 18.2 -6 0 -0.7 -6.3 -5.4 -14 -10.6 l-13.9 -9.4 3.1 -4.3 c1.7 -2.4 3.6 -4.1 4.2 -3.7 9.8 5.8 35.8 23.2 37.9 25.4 3.9 4.2 3.5 6.9 -1.6 11.6 -9.5 8.7 -20.6 13.2 -34.2 13.8 -4.9 0.2 -11.2 0 -14 -0.6z"/>
  <path d="M478.2 1293.7 l-5.2 -5.3 34.6 -41.4 c19 -22.8 35 -41.4 35.5 -41.2 0.5 0.1 4.1 2.3 7.9 4.9 7 4.6 7 4.6 5.2 6.7 -1.1 1.2 -17.7 20 -37.1 41.9 -19.4 21.8 -35.3 39.7 -35.4 39.7 -0.2 0 -2.6 -2.4 -5.5 -5.3z"/>
  <path d="M436.8 1256.3 c-11.5 -11.4 -20.7 -21.1 -20.5 -21.6 0.1 -0.5 18.2 -17.9 40.2 -38.8 l40 -37.9 5.8 5.8 5.8 5.7 -8.8 8.5 c-4.8 4.7 -19.9 19.4 -33.5 32.5 l-24.8 24 15 16 14.9 16 -5.2 5.3 c-2.8 2.8 -5.8 5.2 -6.6 5.2 -0.8 0 -10.9 -9.3 -22.3 -20.7z"/>
  <path d="M401.8 1197.4 c-8.2 -1.9 -16.8 -6.5 -22.6 -12.1 -4.2 -4 -28.4 -37.1 -29.8 -40.8 -0.6 -1.3 2 -3.2 43.1 -32 18.7 -13 35.7 -25.1 37.8 -26.7 2.1 -1.7 4.2 -2.6 4.6 -2.2 0.8 0.8 12.8 18.4 23.3 33.9 14.5 21.4 12.7 45.9 -4.8 64.5 -13.3 14.1 -33 20 -51.6 15.4z m24.3 -13 c12.2 -3.6 20.6 -10.4 26 -21.1 3.2 -6.2 3.4 -7.3 3.4 -16.4 0 -9.5 -0.1 -9.8 -4.4 -18 -3.8 -7.3 -9.2 -15.6 -15.2 -23.6 l-1.6 -2.2 -29.9 20.6 c-16.4 11.3 -31.4 21.5 -33.2 22.8 l-3.2 2.2 10.8 14.4 c11.6 15.4 14.2 17.5 25.1 21 7.1 2.3 15.2 2.4 22.2 0.3z"/>
  <path d="M332.1 1123.3 l-4.1 -6.8 5.8 -6 c3.1 -3.3 7.6 -8 10 -10.5 l4.2 -4.6 -9.1 -19.9 c-4.9 -11 -9.3 -20.3 -9.7 -20.7 -0.4 -0.4 -7.1 0.3 -14.9 1.4 -7.9 1.2 -14.5 1.9 -14.8 1.6 -0.6 -0.6 -5.6 -17 -5.2 -17.4 0.8 -0.7 117.2 -10.3 117.7 -9.7 0.4 0.5 1.6 4.1 2.8 8.2 l2.2 7.4 -7.7 8.1 c-14.8 15.6 -72.6 75.6 -72.8 75.6 -0.2 0 -2.1 -3 -4.4 -6.7z m44.3 -57.3 c9.1 -9.6 16.4 -17.5 16.3 -17.7 -0.2 -0.1 -10.8 0.9 -23.7 2.2 -12.9 1.4 -23.8 2.5 -24.2 2.5 -0.3 0 2.6 7 6.5 15.5 3.9 8.6 7.4 15.4 7.9 15.3 0.4 -0.2 8.2 -8.2 17.2 -17.8z"/>
  <path d="M287.6 1020.8 c-1.4 -4.6 -5.7 -18 -9.4 -29.8 -3.8 -11.8 -6.5 -21.7 -6 -21.8 4 -1.6 102.3 -33.1 102.5 -32.8 0.7 0.6 22.3 59 22 59.3 -0.7 0.6 -17 5.3 -17.4 4.9 -0.2 -0.1 -3.3 -9.7 -6.8 -21.2 -3.6 -11.5 -6.7 -21.4 -7 -22.1 -0.2 -0.7 -4.8 0.6 -13.7 3.9 -7.3 2.7 -13.5 5.2 -13.7 5.4 -0.3 0.3 6.4 20.4 12.6 38 0.6 1.6 -13.8 6.8 -14.7 5.3 -0.4 -0.6 -3.8 -9.3 -7.5 -19.2 -3.7 -10 -7 -18.5 -7.4 -18.8 -0.3 -0.4 -7.6 1.2 -16.1 3.6 -11.1 3 -15.4 4.6 -15.3 5.6 0.2 0.8 3.7 11 7.8 22.8 4.1 11.8 7.5 21.5 7.5 21.7 0 0.2 -13.3 3.4 -14.4 3.4 -0.3 0 -1.6 -3.7 -3 -8.2z"/>
  <path d="M263.3 935.3 c-1.2 -4.9 -2.1 -8.9 -1.9 -9 0.1 -0.1 10.9 -2 24 -4.2 13.1 -2.2 24 -4.1 24.1 -4.3 0.4 -0.4 -7.1 -43.7 -7.6 -44.2 -0.2 -0.2 -10.5 1.8 -22.9 4.5 -12.3 2.7 -22.5 4.9 -22.6 4.9 -0.4 0 -1.6 -22.1 -1.2 -22.6 0.5 -0.5 105 -17.5 105.3 -17.2 0.4 0.7 3.4 19.3 3.1 19.5 -0.1 0.2 -9.6 2 -21 4.2 -11.4 2.1 -20.9 4 -21 4.2 -0.5 0.5 6.9 44.7 7.5 45.3 0.2 0.2 9.6 -1.3 20.8 -3.5 11.3 -2.1 20.6 -3.8 20.7 -3.6 0.6 0.5 4.5 17 4.1 17.3 -0.3 0.4 -106.9 17.4 -108.7 17.4 -0.3 0 -1.5 -3.9 -2.7 -8.7z"/>
  <path d="M1144.5 906.8 c-1 -2.7 -9.5 -48.5 -9.5 -51.1 0 -3.3 0.7 -3.7 16.5 -7.8 6.6 -1.7 12.1 -3.2 12.3 -3.4 0.4 -0.3 -26.6 -141.7 -27.2 -142.2 -0.2 -0.2 -3.2 0.1 -6.7 0.7 -10.7 1.7 -14.8 1.4 -15.9 -1.2 -1.1 -2.9 -8 -44.5 -8 -48.8 0 -2.2 0.6 -3.3 2.3 -4 1.2 -0.5 28.8 -4.8 61.2 -9.5 32.5 -4.8 61.3 -9.3 64 -10 2.8 -0.8 6.9 -1.6 9.1 -1.9 l4.2 -0.6 5.9 8.8 c22.3 32.8 37.2 71.1 42.9 109.7 4.7 32.4 2.9 79 -4.6 117.7 -1 5.4 -2.2 12.6 -2.6 15.9 -0.6 5.3 -0.9 5.9 -2.9 5.9 -1.3 0 -2.5 0.4 -2.7 0.8 -0.3 0.9 -130.4 22.3 -135.1 22.2 -1.5 0 -3 -0.6 -3.2 -1.2z m91.2 -127.2 c7.4 -3.8 12.4 -12.4 12.4 -21.1 0 -13.3 -10 -23.4 -23.4 -23.5 -13.7 0 -23.6 9.7 -23.7 23.3 0 12.1 7.7 21.5 19.3 23.6 4.8 0.8 11.4 -0.2 15.4 -2.3z"/>
  <path d="M1309 881.5 c0 -0.1 1.6 -8.8 3.5 -19.3 6.7 -37.1 8.8 -63.6 7.4 -92.3 -2.1 -43.9 -13.5 -82.4 -35.4 -119.4 -6 -10.1 -9.9 -15.8 -14.6 -21.5 l-3.7 -4.6 16.4 -2.3 c9.6 -1.4 16.9 -2 17.3 -1.5 0.5 0.5 2 2.9 3.4 5.4 1.3 2.5 5.1 8.8 8.2 14 12.3 20.2 23 45.4 29 68.3 6.4 24.7 8.6 42.8 8.6 71.2 0 22.2 -0.9 35.5 -4.1 57.5 -1.7 11.9 -6.8 39.1 -7.3 39.7 -0.3 0.3 -28.7 5 -28.7 4.8z"/>
  <path d="M1358 871.7 c0 -0.8 0.9 -5.8 2 -11.1 2.5 -12.4 5.6 -30.7 7 -42.1 3.1 -25.7 2.9 -62.2 -0.5 -85 -3.7 -24.6 -12.5 -52.5 -23.6 -74.6 -4.4 -8.9 -7.5 -14.3 -20.2 -34.9 -2.5 -4.1 -4.5 -7.5 -4.4 -7.6 0.3 -0.3 27.4 -4.4 29 -4.4 3.5 0 17.8 22.6 27.8 43.5 10.9 23 18.8 49.2 22.5 74 3.4 23.9 3.4 61.2 -0.1 88.9 -2 15.2 -7.6 47.8 -8.5 48.9 -0.4 0.4 -6 1.6 -12.6 2.7 -6.5 1.1 -13.4 2.2 -15.1 2.5 -2.5 0.5 -3.3 0.2 -3.3 -0.8z"/>
  <path d="M1405 863.1 c0 -0.5 1.1 -6 2.4 -12.3 5.4 -25 8.3 -45.9 9.5 -69.4 3 -57.2 -8.5 -106.3 -35.4 -151.9 -2.6 -4.4 -5.7 -9.3 -6.9 -11 -3.2 -4.5 -5.8 -10.8 -4.7 -11.4 1.7 -1.1 36.8 -5.4 38.5 -4.8 0.9 0.4 1.6 1.4 1.6 2.2 0 0.9 1.7 4.2 3.8 7.3 20.4 30.4 35.3 69.6 40.8 106.7 4.8 33.4 2.9 79.4 -5.1 120.5 -1.4 6.9 -2.5 13.5 -2.5 14.8 0 3.1 -1.9 3.7 -21 6.7 -9.1 1.4 -17.5 2.8 -18.7 3.1 -1.3 0.2 -2.3 0 -2.3 -0.5z"/>
  <path d="M1025 835.8 c-3.1 -14.2 -17.7 -84.3 -17.5 -84.5 0.3 -0.5 105.6 -16.3 108.5 -16.3 2.2 0 3.3 0.6 4 2.3 0.7 1.7 17 83 17 85 0 0.7 -11.5 2.7 -62 10.7 -24.5 3.9 -45.5 7.2 -46.7 7.5 -1.9 0.4 -2.3 -0.1 -3.3 -4.7z"/>
  <path d="M409 475.4 c-21.7 -19 -40.1 -35.1 -40.9 -35.9 -1.1 -1.1 -0.6 -2.3 3 -7.4 3.7 -5.3 4.5 -5.9 5.8 -4.7 0.9 0.7 13.7 11.7 28.5 24.5 14.8 12.7 27 23 27.3 22.8 0.2 -0.3 -3 -11.8 -7.1 -25.7 l-7.6 -25.2 2.1 -2.9 c1.1 -1.6 2.6 -2.9 3.2 -2.9 0.7 0 13.8 1.1 29.2 2.4 15.4 1.4 28.1 2.4 28.1 2.3 0.1 -0.1 -13.3 -10.7 -29.7 -23.6 -28.4 -22.3 -29.8 -23.5 -28.5 -25.5 0.7 -1.2 2.8 -4.5 4.5 -7.4 3.3 -5.2 3.3 -5.2 5.5 -3.4 1.3 0.9 20.8 17.5 43.5 36.7 l41.1 34.9 -5.3 5.3 -5.2 5.3 -32.5 -4.9 c-17.9 -2.7 -32.5 -4.9 -32.6 -4.8 -0.1 0.1 4.3 14.8 9.7 32.7 5.5 17.9 9.9 32.6 9.9 32.6 0 0.2 -10.3 7.9 -11.5 8.6 -0.6 0.4 -18.8 -14.9 -40.5 -33.8z"/>
  <path d="M346.5 426 l-2.8 -2.9 5.1 -7.1 c16.7 -22.8 38.5 -48.2 61.5 -71.7 l15.9 -16.2 3.2 2.5 3.1 2.5 -16.4 16.7 c-22.2 22.5 -45.6 50 -62.3 72.9 l-4.5 6.3 -2.8 -3z"/>
 </g>
</svg>