<?xml version="1.0" encoding="utf-8"?>
<!DOCTYPE svg PUBLIC "-//W3C//DTD SVG 1.0//EN" "http://www.w3.org/TR/2001/REC-SVG-20010904/DTD/svg10.dtd">
<svg version="1.0" xmlns="http://www.w3.org/2000/svg" width="1058px" height="1048px" viewBox="0 0 1058 1048" preserveAspectRatio="xMidYMid meet">
 <g fill="#ffffff">
  <path d="M463.3 1037.3 c-1.7 -1.4 -2.7 -5 -5.2 -17.8 -4.8 -24.4 -5.3 -26.6 -6.7 -32 -1.9 -7.2 -4.2 -20 -4.9 -27.4 -0.9 -8.7 -2.2 -10.4 -10.3 -12.9 -8.2 -2.6 -26.6 -7.2 -28.5 -7.2 -0.7 0 -3.1 2.6 -5.3 5.8 -2.1 3.1 -5.1 6.8 -6.6 8.2 -1.6 1.3 -2.8 3 -2.8 3.6 0 1.1 -18.4 26.3 -20 27.4 -0.4 0.3 -1.3 1.6 -2 3 -0.7 1.4 -4.7 7.1 -8.8 12.7 -5.3 7.2 -8.3 10.4 -10.1 10.8 -1.8 0.4 -5.5 -0.7 -11.9 -3.5 -5.1 -2.2 -9.8 -4 -10.5 -4 -0.7 0 -3.9 -1.3 -7.2 -2.9 -8.7 -4.3 -15.4 -7.3 -30 -13.5 -7.2 -3 -15.4 -6.6 -18.2 -8 -2.8 -1.4 -5.5 -2.6 -6 -2.6 -0.5 0 -4.5 -1.5 -8.7 -3.4 -7 -3 -9.8 -5.2 -27.6 -21.7 -11.2 -10.3 -20.4 -19.6 -20.9 -21.1 -0.8 -2.3 -0.4 -3.8 2.3 -9 5.9 -11.2 38.7 -70.2 41.4 -74.3 1.5 -2.2 3.6 -6 4.8 -8.5 1.1 -2.5 16.6 -30.5 34.3 -62.2 17.7 -31.8 32.5 -58.6 32.8 -59.5 0.4 -1 1 -2 1.4 -2.3 1.7 -1.2 9.9 -17.9 9 -18.4 -0.9 -0.6 -22.9 3.8 -37.1 7.4 -4.1 1.1 -32.5 7.6 -63 14.4 -30.5 6.9 -57.3 13 -59.5 13.5 -2.2 0.5 -6.2 1.4 -9 2 -17.8 3.6 -65.1 14.5 -65.5 15.1 -0.7 0.9 -24.4 5.8 -31.5 6.5 -5.7 0.5 -6.2 0.3 -9.7 -2.7 -3.1 -2.7 -4.7 -5.8 -9.3 -17.6 -3 -7.9 -5.5 -15.4 -5.5 -16.7 0 -5.3 4 -7.8 47.6 -29.6 23.3 -11.6 44.9 -22.7 47.9 -24.5 3 -1.8 6.1 -3.4 6.8 -3.6 1.9 -0.5 86.1 -44 86.7 -44.8 1.1 -1.6 12.5 -7 13.7 -6.6 0.7 0.3 1.3 0.2 1.3 -0.2 0 -0.4 5 -3.2 11 -6.2 8.6 -4.3 11.2 -6 11.7 -7.9 0.9 -3.5 -1.4 -4.7 -12.2 -6.1 -5.2 -0.7 -9.5 -1.6 -9.5 -2.1 0 -0.5 -2.1 -0.9 -4.7 -0.9 -2.7 0 -51.4 -7.2 -108.3 -16 -56.9 -8.7 -107.5 -16.4 -112.4 -17 -10.9 -1.4 -18.6 -4.7 -21.5 -9.4 -1.9 -3 -2.1 -4.9 -2.1 -20.4 l0 -17 3.1 -2.6 c1.7 -1.4 4 -2.6 5.2 -2.6 1.2 0 6.7 -0.5 12.2 -1 5.5 -0.6 18.8 -1.5 29.5 -2 10.7 -0.5 27.2 -1.6 36.5 -2.4 9.4 -0.9 42.2 -3.6 73 -6.1 30.8 -2.4 61.6 -5 68.5 -5.5 6.9 -0.6 18.1 -1.5 24.9 -2 14.8 -1.1 16.1 -1.5 16.1 -4.3 0 -3.5 -3.5 -6.4 -21.1 -18.1 -9 -5.9 -47.2 -31.3 -84.9 -56.3 -37.7 -24.9 -70.2 -46.3 -72.2 -47.3 -9.2 -4.9 -38.8 -25.1 -38.8 -26.5 0 -0.9 2.3 -8.1 5.1 -16 3.8 -10.6 5.7 -14.6 7.4 -15.5 1.8 -1 5.8 -0.1 26.1 5.5 13.1 3.7 24.1 7.1 24.4 7.5 0.3 0.4 2.5 1.3 5 2 6 1.6 82.6 23.1 133 37.4 22.3 6.3 42.2 12.2 44.2 13 2.1 0.9 4.8 1.6 6.1 1.6 1.4 0 4.3 0.7 6.6 1.5 2.2 0.8 4.1 1.3 4.1 1.1 0 -0.2 -12.1 -19.4 -26.9 -42.8 -14.8 -23.3 -27.2 -43.4 -27.5 -44.6 -0.4 -1.2 -1.1 -2.2 -1.6 -2.2 -0.4 0 -1.5 -1.6 -2.4 -3.5 -0.9 -1.9 -2.1 -3.5 -2.7 -3.5 -0.5 0 -1.3 -1 -1.8 -2.3 -1 -2.6 -49.9 -80 -51.1 -80.7 -0.9 -0.6 -26.8 -41.3 -27.5 -43.2 -0.3 -0.7 -0.1 -1.8 0.3 -2.4 1.7 -2.4 26.9 -23.2 28.9 -23.8 1.2 -0.4 3.2 -0.2 4.5 0.5 3.2 1.7 32.8 27.9 32.8 29 0 0.5 0.7 0.9 1.5 0.9 0.8 0 1.5 0.4 1.5 0.9 0 0.5 24.4 22.2 54.2 48.3 29.9 26.2 55.8 49.2 57.6 51.2 1.8 2 3.7 3.6 4.2 3.6 0.5 0 10.9 8.8 23.2 19.5 17.6 15.4 22.8 19.5 25.1 19.5 1.5 0 3 -0.6 3.3 -1.3 0.2 -0.7 -2 -15 -5.1 -31.8 -3.1 -16.7 -5.9 -32 -6.2 -33.9 -0.2 -1.9 -3.2 -18.8 -6.5 -37.5 -3.3 -18.7 -6.2 -36.9 -6.4 -40.4 -0.2 -3.6 -0.8 -6.7 -1.3 -7 -0.4 -0.3 -3.4 -15.4 -6.6 -33.6 -3.2 -18.1 -6.2 -33.2 -6.5 -33.5 -0.3 -0.3 -1.7 -6.3 -2.9 -13.4 -3.3 -18.3 -2.2 -25.1 4.5 -28.6 1.6 -0.8 3.1 -1.7 3.4 -2.1 0.3 -0.3 5.6 -2 11.9 -3.8 l11.4 -3.2 4.5 2.8 c4.4 2.7 4.9 3.5 14.9 25.2 5.7 12.4 10.3 23 10.3 23.7 0 0.6 3.6 9 8 18.5 4.4 9.6 8 17.9 8 18.5 0 0.7 2 4.9 4.4 9.5 2.4 4.6 13 27.5 23.6 50.9 10.6 23.4 20.6 45.2 22.1 48.5 1.6 3.3 4.4 9.4 6.3 13.5 13.1 28.6 12.5 27.6 14.5 25.4 1 -1.1 4.8 -12.7 9 -27.9 4 -14.3 11.3 -40.2 16.3 -57.5 4.9 -17.3 9.8 -34.6 10.8 -38.5 1.1 -3.8 4.9 -17.3 8.5 -30 9 -31.3 11.3 -40.1 12.7 -46.5 2.3 -11.5 14.2 -52.5 15.7 -54.2 0.9 -1 2.7 -1.8 4.1 -1.8 4.6 0 24 3.4 24 4.2 0 0.4 1.1 0.8 2.3 0.8 5.9 0 5.5 -5.7 7.7 107.1 1.2 56.9 2.4 117.9 2.8 135.7 l0.7 32.3 20.6 -23.3 c11.4 -12.8 23.1 -26.1 26 -29.4 3 -3.4 25 -28.2 48.9 -55 53.7 -60.4 55 -61.9 57.7 -65.6 4 -5.6 19.6 -21.8 21 -21.8 0.7 0 1.3 -0.4 1.3 -1 0 -1.3 7.1 -1.3 10.4 0 1.4 0.5 8.1 4.8 14.8 9.5 17.8 12.5 17.7 9.8 1.7 36.8 -7.3 12.2 -13.5 22.4 -13.9 22.7 -0.9 0.6 -8.2 12.1 -11.1 17.4 -1.2 2.2 -2.8 4.6 -3.5 5.4 -0.8 0.7 -1.4 1.7 -1.4 2.2 0 0.5 -2 4.4 -4.5 8.6 -4.8 8 -5.3 9.4 -3.2 9.3 1.1 0 29.3 -14.1 75.9 -37.8 15.5 -7.9 16.7 -8.4 19.4 -7.2 2.8 1.2 17.4 19.6 17.4 22 0 0.6 0.6 1.1 1.3 1.1 0.8 0 2.2 1.8 3.2 4 1 2.2 2.1 4 2.5 4 0.8 0 25.9 33 30.1 39.5 2.1 3.3 8.7 11.9 14.3 18.6 2.3 2.7 3.9 8.9 3.3 12.6 -0.7 3.9 0.3 2.8 -35.2 39.7 -11.5 12 -21.1 22.6 -21.3 23.6 -0.2 1 2.9 9 6.9 17.8 5.4 12 7.9 16.3 9.7 17.1 1.7 0.9 7 0.6 21 -0.9 17.3 -1.8 25.6 -2.6 37.2 -3.6 2.5 -0.3 9.6 -1 15.8 -1.6 7.3 -0.7 12.3 -0.8 14 -0.2 3.1 1.1 3.7 2.7 8.6 21.9 1.9 7.2 5 18 6.9 24 2 6.1 4.1 13.3 4.7 16 1.1 4.9 3.4 12.6 10.5 35.4 3.9 12.8 4.2 15.8 1.9 20.6 -1.5 3.1 -3.6 4.2 -44.2 20.8 l-42.7 17.6 -0.3 18.3 c-0.2 18.3 -0.2 18.4 2.1 20.6 2.2 2.1 26 12.6 46.7 20.7 21 8.2 33.4 14.2 35.9 17.5 l2.5 3.2 -3.8 15.6 c-2.1 8.7 -4.2 16.1 -4.7 16.7 -0.5 0.5 -0.9 2 -0.9 3.5 0 1.4 -0.7 3.8 -1.5 5.4 -0.8 1.5 -1.3 3.2 -1 3.7 0.6 0.8 -5.8 27.6 -7.4 31.4 -0.5 1.1 -1.3 4.3 -1.9 7 -4.1 19.6 -6.5 27.7 -8.7 29.1 -2 1.3 -5.4 1.4 -25.2 0.5 -12.5 -0.6 -33.1 -1.2 -45.8 -1.3 l-23 -0.3 -6.2 14.5 c-3.4 8 -6.2 15.4 -6.3 16.5 0 1.3 6.1 8.6 16.1 19.5 47 51.1 45.9 49.8 45.9 53.5 0 2.5 -0.9 4.5 -3.3 7.2 -1.8 2.1 -10.7 12.1 -19.6 22.3 -9 10.2 -18 20.1 -20 22.1 -2 2 -5.2 5.5 -7.1 7.9 -18.1 21.9 -29.4 33 -34 33 -1.4 0 -10.4 -4.3 -20 -9.6 -9.6 -5.3 -19.1 -10.4 -21 -11.3 -1.9 -1 -11.1 -5.9 -20.3 -11 -13.5 -7.5 -17.3 -9.2 -19.4 -8.6 -2.7 0.6 -26.1 19.5 -27.6 22.1 -0.5 0.9 -0.2 3.5 0.7 6.2 3.9 12.3 14 44.3 18.5 58.8 2.8 8.8 5.1 16.8 5.1 17.8 0 0.9 -0.7 3 -1.5 4.7 -1.3 2.5 -9.1 6.7 -52.6 28.4 -31.4 15.7 -52.1 25.5 -53.9 25.5 -2.5 0 -4 -1.4 -10.9 -10.5 -4.5 -5.8 -9 -12.3 -10.1 -14.3 -1 -2 -3.4 -5.3 -5.3 -7.4 -1.8 -2 -9.3 -11.7 -16.6 -21.7 -7.4 -9.9 -14.2 -18.3 -15.2 -18.6 -2.1 -0.7 -31.2 7.1 -34.5 9.2 -2.1 1.4 -2 0.8 -14.9 57.8 -5.1 22.6 -6.8 27.3 -10.4 28.7 -1.6 0.7 -23.3 1.2 -57.6 1.5 -52 0.4 -55.1 0.3 -57.2 -1.4z m96.5 -28.1 c1.1 -1.1 2.2 -3.9 2.5 -6.3 2 -13.1 14.6 -77.2 15.3 -77.8 1.3 -1.1 68.4 -17.1 71.6 -17.1 2.3 0 5.8 4.2 28.4 35 14.2 19.3 26.2 35 26.7 35 0.5 0 2.1 -0.8 3.5 -1.9 1.5 -1 3.8 -2.2 5.2 -2.6 2.5 -0.8 57.1 -27.2 57.9 -28.1 0.2 -0.2 -0.3 -2.8 -1.2 -5.6 -15.3 -48.9 -21.7 -71.1 -21.7 -75.1 0 -4.1 0.4 -4.9 3.8 -7.6 2 -1.7 12.2 -9.9 22.6 -18.1 10.4 -8.3 19.4 -15.7 20 -16.4 2.8 -3.3 7.6 -5.6 11.8 -5.6 4.9 0.1 2.4 -1.2 45.7 22.3 18.1 9.7 33.1 17.7 33.4 17.7 0.2 0 3.8 -4.1 7.8 -9.1 4.1 -5 8.2 -9.9 9.1 -10.9 2.2 -2.5 29 -34.7 30.6 -36.9 1.1 -1.5 -2.2 -5.6 -27.8 -34.2 -22.5 -25.1 -29 -33 -29 -35 0 -1.5 5.1 -13.5 11.4 -26.8 6.3 -13.3 12 -25.8 12.7 -27.9 0.7 -2 2.3 -5.4 3.7 -7.4 2.4 -3.8 2.6 -3.8 9.1 -3.8 3.6 0 23.4 0.7 43.9 1.6 26.1 1.2 37.6 1.4 38.3 0.7 0.6 -0.6 5 -16.9 9.9 -36.2 l8.8 -35.2 -2.9 -1.4 c-1.5 -0.8 -3.4 -1.5 -4.1 -1.5 -0.7 0 -3.3 -1 -5.8 -2.3 -2.5 -1.3 -19.2 -8.3 -37.1 -15.7 l-32.6 -13.3 -0.6 -27 c-0.4 -14.9 -0.7 -32.3 -0.7 -38.8 l0 -11.8 5.4 -2.5 c3 -1.4 5.9 -2.6 6.4 -2.6 0.9 0 69.4 -27.5 72.3 -29 1.4 -0.8 0.4 -5.1 -8.6 -37.1 -5.7 -19.8 -10.7 -36.5 -11.2 -37 -0.6 -0.6 -15.8 0.5 -40.7 3.1 -21.8 2.3 -41.5 4 -43.8 3.8 l-4.2 -0.3 -15.3 -33.5 c-10.2 -22.3 -15.3 -34.4 -15.1 -36.2 0.2 -2 7.3 -10 26.2 -29.8 14.2 -14.9 26.9 -28.4 28.3 -30 l2.4 -2.9 -19.8 -26.2 c-10.9 -14.4 -21.1 -28.1 -22.6 -30.3 -1.6 -2.3 -3.5 -4.7 -4.2 -5.5 -1.1 -1.1 -7.3 2 -37.6 19 -20 11.2 -37.8 20.5 -39.6 20.7 -2.4 0.3 -4.2 -0.4 -8 -3.3 -4.2 -3.2 -4.9 -3.5 -5.8 -2 -0.5 0.9 -10.2 14.5 -21.4 30.3 -11.2 15.8 -23 32.5 -26.3 37.2 l-5.8 8.5 6.2 5.4 c11.1 9.5 32 31.4 40.4 42.2 35.3 45.2 55.4 94.2 61.9 150.9 2.2 18.6 1.6 64.7 -1 81 -10.5 67 -40.4 125.1 -87.6 170.5 -48.3 46.4 -108.9 74.5 -175.9 81.5 -12.7 1.3 -52 1.3 -65.6 -0.1 -41.1 -4 -86.8 -19.1 -121.1 -39.9 l-6.3 -3.9 -1.4 2.7 c-0.8 1.5 -13.4 19.6 -28.2 40.2 -14.7 20.6 -26.9 38.6 -27.2 40 -0.4 2.1 -21.7 33 -48 69.4 -3.9 5.5 -7.1 10.1 -6.9 10.2 0.5 0.6 62 28.4 62.7 28.4 0.3 0 11.6 -15.5 25 -34.5 27.7 -39.4 23.4 -36 40.1 -32.1 33.3 7.6 59.5 14 60.2 14.7 0.8 0.6 10.3 52 13.3 71.9 0.8 5.2 1.9 10.5 2.4 11.8 l1 2.2 36.5 0 c34.1 0 36.6 -0.1 38.3 -1.8z m-282.6 -134.2 c5.2 -7.4 10.7 -15.3 12.1 -17.6 1.4 -2.2 3.1 -4.7 3.9 -5.5 1.2 -1.2 57.3 -80 65.1 -91.4 1.5 -2.2 7.2 -10.1 12.7 -17.5 5.4 -7.4 13.2 -18.2 17.2 -23.8 4 -5.7 32.2 -45.6 62.7 -88.5 30.5 -43 65.7 -92.8 78.4 -110.7 12.6 -17.9 24.2 -33.8 25.7 -35.5 1.5 -1.6 25.6 -35.4 53.6 -75 27.9 -39.6 60.6 -85.9 72.6 -102.8 12 -17 21.8 -31.2 21.8 -31.6 0 -0.5 1 -1.9 2.3 -3.3 3.4 -3.6 52.7 -73.4 52.7 -74.6 0 -0.5 1.7 -2.9 3.8 -5.3 3.7 -4.2 27 -36.8 28.6 -39.9 1 -2 5.2 -6.7 -92.8 102.3 -85.2 94.8 -87 96.7 -90.6 96.7 l-3.7 0 -0.6 -97.7 c-0.4 -53.7 -0.7 -114.8 -0.8 -135.7 0 -37.8 -0.6 -45.8 -2.6 -38.6 -0.6 1.9 -16.7 60.8 -35.9 130.8 l-34.8 127.2 -3.1 0 -3 0 -56.9 -120.5 c-31.3 -66.3 -57 -120.4 -57.2 -120.2 -0.2 0.2 1.2 9.3 3.2 20.3 1.9 10.9 3.9 22.8 4.4 26.4 0.5 3.6 3.2 20.2 6.1 37 2.8 16.8 5.4 31.9 5.6 33.5 0.3 1.7 5.8 35.3 12.4 74.7 6.5 39.5 11.9 72.7 11.9 73.8 0 1.6 -0.7 2 -3.3 2 -2.9 0 -6.3 -2.6 -24.8 -18.3 -11.8 -10.1 -54.2 -46.3 -94.4 -80.5 -40.1 -34.3 -74.3 -63.5 -76 -64.9 -11.2 -9.9 -16.5 -14.3 -16.5 -13.8 0 0.5 26.3 42.1 40.5 64 2.9 4.4 18.8 29.4 35.5 55.5 16.6 26.1 31 48.4 32 49.5 0.9 1.1 1.9 2.7 2.2 3.5 0.3 0.9 7.8 12.9 16.7 26.8 17.7 27.8 19.1 31.2 12.6 31.2 -2.6 0 -102.8 -31.2 -170 -53 -33.2 -10.7 -81.8 -26 -82 -25.8 -0.2 0.2 30.1 21.1 67.3 46.6 37.3 25.5 69.1 47.3 70.9 48.5 1.8 1.2 22.1 15.2 45.3 31.2 40.9 28.2 42 29 42 32.2 0 2.5 -0.4 3.3 -1.7 3.3 -2.8 0 -266.4 25.9 -270.3 26.6 -2.4 0.4 -3 0.8 -2 1.3 0.8 0.5 63.1 11.1 138.3 23.7 l136.8 22.9 -0.3 3.4 -0.3 3.4 -115.3 65.3 c-63.5 35.8 -115.9 65.7 -116.5 66.4 -0.9 1 -0.7 1.1 1.3 0.7 4.2 -1 170.9 -35.8 180.5 -37.7 5 -1 25.3 -5.3 45.2 -9.4 19.9 -4.2 37.3 -7.6 38.7 -7.6 2.2 0 2.6 0.4 2.6 3 0 2.1 -18.4 37.2 -60.5 115.2 -33.3 61.7 -60.5 112.4 -60.5 112.7 0 0.9 1.5 -1.1 11.2 -14.9z m312.8 -96.4 c37.7 -6.4 69.4 -18.8 100.1 -39.1 61.2 -40.6 102 -107.8 109.9 -181.2 1.7 -15.7 0.8 -46.4 -1.9 -61.8 -9.3 -54 -35.4 -103.2 -74.5 -140.2 -5.6 -5.2 -11.3 -10.3 -12.8 -11.4 l-2.6 -1.9 -1.9 3.3 c-1.1 1.7 -29.6 41.9 -63.4 89.2 -85.1 119.1 -210.6 295.2 -217.7 305.4 -1.2 1.7 -0.8 2.2 4.5 5.4 27.9 17 64.8 29.5 98.8 33.6 12 1.4 50.2 0.6 61.5 -1.3z"/>
 </g>
 <g fill="#fff200">
  <path d="M258.7 900.3 c-0.4 -0.3 -0.7 -1.6 -0.7 -2.7 0 -1.2 28.3 -54.5 62.9 -118.6 34.6 -64.1 62.8 -116.6 62.7 -116.6 0 -0.1 -10.7 2.1 -23.6 4.8 -12.9 2.7 -34.1 7.1 -47 9.8 -12.9 2.7 -61.3 12.8 -107.5 22.4 -46.2 9.7 -85.5 17.6 -87.3 17.6 -2.6 0 -3.4 -0.5 -4.3 -2.7 -0.5 -1.4 -0.6 -3 -0.2 -3.4 0.4 -0.4 53 -30.3 116.8 -66.4 63.8 -36.1 116.3 -65.9 116.7 -66.3 0.4 -0.4 -60.8 -11 -136 -23.6 -75.2 -12.6 -137.5 -23.3 -138.5 -23.8 -1.2 -0.6 -1.7 -1.8 -1.5 -3.6 0.2 -2.2 1 -2.9 3.8 -3.5 1.9 -0.4 63.4 -6.6 136.5 -13.7 73.2 -7.2 133.6 -13.1 134.3 -13.3 1 -0.1 -53.9 -38.7 -85.8 -60.2 -1.6 -1.1 -33.9 -23.2 -71.7 -49.1 -64.4 -44.1 -68.8 -47.3 -68.8 -50 0 -2.3 0.5 -3 2.5 -3.2 2.1 -0.2 20.5 5.4 88.5 27.2 64 20.4 165.8 52.6 166 52.4 0.1 -0.2 -7.1 -11.8 -16.1 -25.8 -9 -14 -16.4 -25.9 -16.4 -26.4 0 -0.6 -0.9 -1.9 -1.9 -3 -1 -1.2 -15.5 -23.5 -32.1 -49.6 -16.7 -26.1 -32.6 -51.1 -35.5 -55.5 -22.5 -34.8 -43.5 -68.4 -43.5 -69.8 0 -1 1.1 -2.3 2.5 -2.9 2 -0.9 2.8 -0.8 4.2 0.4 1 0.8 5 4.1 8.8 7.4 3.9 3.3 8.2 7.1 9.6 8.4 1.5 1.4 4.6 4.1 7 6 2.4 1.9 44.5 37.7 93.4 79.5 49 41.8 89.8 76.6 90.6 77.2 1.2 1 -0.8 -13 -9.2 -63.5 -6 -35.6 -11.5 -68.7 -12.3 -73.7 -0.7 -4.9 -3.7 -22.7 -6.6 -39.5 -2.8 -16.8 -5.5 -33.4 -6 -37 -0.5 -3.6 -2.5 -15.5 -4.4 -26.5 -2 -11 -3.5 -21.6 -3.4 -23.5 0.3 -3.2 0.6 -3.5 3.3 -3.5 3 0 3 0 58.7 118 30.6 64.9 56.3 119.3 57 120.8 1.3 2.7 3.7 -5.9 36.8 -126.8 19.5 -71.4 36 -130.4 36.5 -131.2 1.5 -2.1 6.2 -0.7 6.9 2 0.3 1.2 0.6 19.1 0.6 39.8 0 76.9 1.4 232.9 2 232.9 0.3 0 41.3 -45.2 91 -100.5 68 -75.6 90.9 -100.5 92.6 -100.5 1.2 0 2.9 1.1 3.7 2.4 1.6 2.3 1.3 2.9 -12.2 21.9 -7.5 10.7 -15.4 21.4 -17.4 23.8 -2 2.3 -3.7 4.7 -3.7 5.2 0 1.1 -49.4 71 -52.7 74.5 -1.3 1.4 -2.3 2.8 -2.3 3.3 0 0.4 -9.8 14.6 -21.8 31.6 -12 16.9 -44.7 63.2 -72.6 102.8 -28 39.6 -52.1 73.4 -53.6 75 -1.5 1.7 -13.1 17.6 -25.7 35.5 -12.7 17.9 -47.9 67.7 -78.4 110.7 -30.5 42.9 -58.7 82.8 -62.7 88.5 -4 5.6 -11.8 16.4 -17.2 23.8 -5.5 7.4 -11.2 15.3 -12.7 17.5 -7.8 11.4 -63.9 90.2 -65.1 91.4 -0.8 0.8 -2.5 3.3 -3.9 5.5 -3.5 5.5 -21.3 30.7 -23 32.6 -0.8 0.8 -2.3 3 -3.4 4.8 -1.8 3 -5.4 4.3 -7.2 2.5z"/>
 </g>
 <g fill="#515151">
  <path d="M481 1011.8 c-0.5 -1.3 -1.6 -6.6 -2.4 -11.8 -3 -19.9 -12.5 -71.3 -13.3 -71.9 -0.4 -0.4 -11.8 -3.4 -25.3 -6.5 -39.2 -9.3 -44.5 -10.5 -45 -9.9 -0.3 0.2 -11.3 15.8 -24.6 34.6 -19.1 27.1 -24.6 34.3 -26.5 34.5 -2.1 0.2 -67 -28.5 -69.1 -30.6 -0.4 -0.4 3.3 -6.4 8.3 -13.2 25.9 -35.9 48.7 -68.8 49.1 -71 0.3 -1.4 12.5 -19.3 27.1 -39.8 14.7 -20.5 27.6 -39.1 28.9 -41.3 1.2 -2.1 2.5 -3.9 3 -3.9 0.4 0 3.6 1.8 7 4.1 9.2 5.9 33.5 18 47 23.3 22.6 8.9 52.6 16.1 77.2 18.5 13.6 1.4 46.9 1.4 59.6 0.1 67 -7 127.6 -35.1 175.9 -81.5 47.2 -45.4 77.2 -103.8 87.6 -170.5 2.6 -16.4 3.1 -56.9 1 -75 -9.1 -79.2 -48 -149.8 -109.3 -198.7 l-2.3 -1.8 3.6 -5 c4.9 -6.8 51.5 -72.7 54 -76.4 l2.1 -3 6.6 4.9 6.6 4.8 37.3 -20.9 c20.6 -11.5 38.4 -20.9 39.6 -20.9 1.9 0 4.5 2.6 9.3 9.6 0.8 1.2 10.6 14.2 21.8 29 11.7 15.6 20.2 27.7 20.2 29 0 1.4 -9.3 11.9 -28.8 32.4 l-28.9 30.4 12.4 27 c6.9 14.9 13.8 29.9 15.3 33.4 1.8 3.8 3.5 6.2 4.5 6.2 0.8 0 19 -1.8 40.2 -4 46 -4.8 46 -4.8 47.3 -1.7 1.9 4.1 21 72.8 21 75.2 0 1.3 -0.8 2.9 -1.8 3.4 -2.9 1.6 -71.4 29.1 -72.4 29.1 -0.5 0 -3.4 1.2 -6.5 2.6 l-5.5 2.7 0.7 35.6 c0.4 19.6 0.8 35.7 0.9 35.8 0 0 15.2 6.3 33.6 13.8 18.4 7.6 35.1 14.6 37 15.6 1.9 1.1 4.1 1.9 4.8 1.9 3.2 0 7.2 3.1 7.2 5.5 0 2.8 -16.4 69.6 -18 73.3 -0.9 2 -1.6 2.2 -9.7 2.2 -4.9 0 -22.1 -0.7 -38.3 -1.5 -16.2 -0.8 -32.3 -1.5 -35.6 -1.5 -6 0 -6.2 0.1 -8.6 3.8 -1.4 2 -3.2 5.7 -4 8.2 -0.9 2.5 -6.5 14.9 -12.6 27.6 l-11 23.2 29.4 32.8 c19.1 21.3 29.4 33.6 29.4 35 0 1.2 -1.7 4.1 -3.8 6.5 -2.1 2.4 -9 10.7 -15.3 18.4 -6.4 7.7 -12.5 15.1 -13.7 16.5 -1.2 1.4 -5.6 6.7 -9.8 11.8 -5.2 6.3 -8.2 9.2 -9.7 9.2 -1.9 0 -61.7 -31.3 -69.7 -36.5 -1.9 -1.3 -5.1 -2.9 -7.1 -3.6 -3.3 -1.1 -4 -1 -7 1.1 -1.9 1.3 -3.9 2.9 -4.5 3.6 -0.6 0.7 -9.6 8.1 -20 16.4 -26.8 21.3 -26.4 20.9 -26.4 22.7 0 1.6 17.7 59.8 22.4 74 1.9 5.6 2.2 7.5 1.3 8.7 -1.2 1.5 -53.7 27.5 -58.7 29.1 -1.4 0.4 -4.1 1.8 -6 3.1 -7.3 5 -6.1 6.1 -35 -33.2 -14.5 -19.5 -26.8 -35.3 -27.4 -35.1 -0.6 0.2 -15.7 3.9 -33.6 8.2 -17.9 4.3 -32.9 8.2 -33.4 8.6 -0.7 0.6 -13.3 64.8 -15.3 77.8 -1.2 8.5 0.9 8.1 -43.8 8.1 l-39.5 0 -1 -2.2z"/>
  <path d="M525.5 782.9 c-34.8 -4.2 -73.4 -17.5 -100.9 -34.9 -6 -3.8 -6.6 -4.4 -5.4 -6.1 0.7 -1 21.8 -30.5 46.9 -65.6 25.1 -35.1 48.7 -68.3 52.4 -73.8 3.8 -5.5 19.5 -27.5 34.9 -49 29.8 -41.6 148.7 -208.3 152.2 -213.5 l2.2 -3.1 6.3 5.3 c39.5 32.8 67.7 76.6 81.5 126.7 5.8 21.1 7.6 33.9 8.1 58.9 0.6 25.3 -0.4 37.7 -4.7 58.2 -13.4 63.9 -51.8 120.6 -105.9 156.5 -30.7 20.3 -62.2 32.6 -100.1 39.1 -11.3 1.9 -55 2.8 -67.5 1.3z"/>
 </g>
</svg>