<?xml version="1.0" encoding="utf-8"?>
<!DOCTYPE svg PUBLIC "-//W3C//DTD SVG 1.0//EN" "http://www.w3.org/TR/2001/REC-SVG-20010904/DTD/svg10.dtd">
<svg version="1.0" xmlns="http://www.w3.org/2000/svg" width="1236px" height="1248px" viewBox="0 0 1236 1248" preserveAspectRatio="xMidYMid meet">
 <g fill="#080808">
 </g>
 <g fill="#101010">
 </g>
 <g fill="#191919">
 </g>
 <g fill="#212121">
 </g>
 <g fill="#292929">
 </g>
 <g fill="#313131">
 </g>
 <g fill="#3a3a3a">
 </g>
 <g fill="#424242">
 </g>
 <g fill="#4a4a4a">
  <path d="M95.1 705.4 c-33.7 -35.2 -36.5 -38.8 -33 -41 0.6 -0.3 25.9 -6.2 56.1 -13 30.2 -6.7 55.1 -12.4 55.2 -12.6 0.2 -0.2 5.3 -16 11.4 -35.2 9.4 -29.6 10.9 -35.2 9.8 -36.5 -12.5 -14.8 -51.8 -60.1 -52.4 -60.5 -0.5 -0.3 -30.9 6.5 -67.8 15 -36.8 8.5 -68.2 15.3 -69.9 15.2 -2.4 -0.2 -3.1 -0.8 -3.3 -2.8 -0.3 -2.5 29.8 -86.4 31.6 -88.2 1.1 -1.1 155.4 -35.8 159.3 -35.8 2.1 0 8.1 6 34 34.2 17.3 18.8 32.1 35.1 32.9 36.1 1.5 1.8 5.3 1 115 -24.2 126.3 -28.9 128.5 -29.5 145.7 -34.5 6.7 -1.9 17.9 -4.7 25 -6.1 7 -1.5 18.7 -4 25.8 -5.6 7.2 -1.6 74.9 -15.9 150.5 -31.8 137.7 -29 202.1 -42.8 202.5 -43.3 0.1 -0.2 7.5 -20.3 16.3 -44.7 8.9 -24.4 16.6 -44.9 17.1 -45.4 1.1 -1.1 129.4 -30.7 133.2 -30.7 2.2 0 8.7 6.3 36.8 35.6 33.7 35.2 36.5 38.8 33 41 -0.6 0.3 -25.9 6.2 -56.1 13 -30.2 6.7 -55.1 12.4 -55.2 12.6 -0.2 0.2 -5.3 16 -11.4 35.2 -9.4 29.6 -10.9 35.2 -9.8 36.5 12.5 14.8 51.8 60.1 52.4 60.5 0.5 0.3 30.9 -6.5 67.8 -15 36.8 -8.5 68.3 -15.3 69.9 -15.2 2.4 0.2 3.1 0.8 3.3 2.8 0.3 2.5 -29.8 86.4 -31.6 88.2 -1.1 1.1 -155.4 35.8 -159.3 35.8 -2.1 0 -8.1 -6 -34 -34.2 -17.3 -18.8 -32.1 -35.1 -32.9 -36.1 -1.5 -1.8 -5.3 -1 -115 24.2 -126.3 28.9 -128.5 29.5 -145.7 34.5 -6.7 1.9 -17.9 4.7 -25 6.1 -7 1.5 -22.7 4.8 -34.8 7.5 -12.1 2.7 -32.8 7.1 -46 9.9 -96.9 20.4 -297.7 63 -298 63.3 -0.1 0.2 -7.5 20.3 -16.3 44.7 -8.9 24.4 -16.6 44.9 -17.1 45.4 -1.1 1.1 -129.4 30.7 -133.2 30.7 -2.2 0 -8.7 -6.3 -36.8 -35.6z"/>
 </g>
 <g fill="#525252">
 </g>
 <g fill="#5a5a5a">
 </g>
 <g fill="#636363">
 </g>
 <g fill="#6b6b6b">
 </g>
 <g fill="#737373">
 </g>
 <g fill="#7b7b7b">
 </g>
 <g fill="#848484">
 </g>
 <g fill="#8c8c8c">
 </g>
 <g fill="#949494">
 </g>
 <g fill="#9c9c9c">
 </g>
 <g fill="#a5a5a5">
 </g>
 <g fill="#adadad">
 </g>
 <g fill="#b5b5b5">
  <path d="M539.6 1215.5 c-23 -8.4 -42.3 -15.8 -42.8 -16.3 -1.1 -1.1 -35.8 -155.4 -35.8 -159.3 0 -2.1 6 -8.1 34.2 -34 18.8 -17.3 35.1 -32.1 36.1 -32.9 1.8 -1.5 1 -5.3 -24.2 -115 -28.9 -126.3 -29.5 -128.5 -34.5 -145.7 -1.9 -6.7 -4.7 -17.9 -6.1 -25 -1.5 -7 -4 -18.6 -5.6 -25.8 -7.1 -31.5 -9.7 -45.6 -8.6 -46 2.5 -0.8 144.1 -32.4 144.3 -32.2 0.2 0.2 7.1 32.6 23.9 111.7 34.6 163.7 50.4 238.3 50.7 238.5 0.2 0.1 20.3 7.5 44.7 16.3 24.4 8.9 44.9 16.6 45.4 17.1 1.1 1.1 30.7 129.4 30.7 133.2 0 2.2 -6.3 8.7 -35.6 36.8 -35.2 33.7 -38.8 36.5 -41 33 -0.3 -0.6 -6.2 -25.9 -13 -56.1 -6.7 -30.2 -12.4 -55.1 -12.6 -55.2 -0.2 -0.2 -16 -5.3 -35.2 -11.4 -29.6 -9.4 -35.2 -10.9 -36.5 -9.8 -14.8 12.5 -60.1 51.8 -60.5 52.4 -0.3 0.5 6.5 30.9 15 67.8 8.5 36.8 15.3 68.3 15.2 69.9 -0.3 2.6 -0.7 3 -3.3 3.2 -1.8 0.1 -19.8 -6 -44.9 -15.2z"/>
  <path d="M409 414.3 c-0.7 -3.2 -3 -13.7 -5.1 -23.3 -2.1 -9.6 -7 -32.1 -10.8 -49.9 -3.9 -17.8 -7.2 -32.5 -7.3 -32.6 -0.2 -0.1 -20.3 -7.5 -44.7 -16.3 -24.4 -8.9 -44.9 -16.6 -45.4 -17.1 -1.1 -1.1 -30.7 -129.4 -30.7 -133.2 0 -2.2 6.3 -8.7 35.6 -36.8 35.2 -33.7 38.8 -36.5 41 -33 0.3 0.6 6.2 25.9 13 56.1 6.7 30.2 12.4 55.1 12.6 55.2 0.2 0.2 16 5.3 35.2 11.4 29.6 9.4 35.2 10.9 36.5 9.8 14.8 -12.5 60.1 -51.8 60.5 -52.4 0.3 -0.5 -6.5 -30.9 -15 -67.8 -8.5 -36.8 -15.3 -68.2 -15.2 -69.9 0.2 -2.4 0.8 -3.1 2.8 -3.3 2.5 -0.3 86.4 29.8 88.2 31.6 1.1 1.1 35.8 155.4 35.8 159.3 0 2.2 -6.1 8.2 -35.2 34.9 -19.4 17.7 -35.6 32.7 -36.1 33.4 -0.4 0.6 5.2 27 12.6 58.7 l13.3 57.6 -68.6 16.3 c-37.7 9 -69.2 16.5 -70.2 16.8 -1.3 0.3 -1.9 -0.8 -2.8 -5.5z"/>
 </g>
 <g fill="#bdbdbd">
 </g>
 <g fill="#c5c5c5">
 </g>
 <g fill="#cecece">
 </g>
 <g fill="#d6d6d6">
 </g>
 <g fill="#dedede">
 </g>
 <g fill="#e6e6e6">
 </g>
 <g fill="#efefef">
 </g>
 <g fill="#f7f7f7">
 </g>
 <g fill="#ffffff">
 </g>
</svg>