<?xml version="1.0" encoding="utf-8"?>
<!DOCTYPE svg PUBLIC "-//W3C//DTD SVG 1.0//EN" "http://www.w3.org/TR/2001/REC-SVG-20010904/DTD/svg10.dtd">
<svg version="1.0" xmlns="http://www.w3.org/2000/svg" width="330px" height="330px" viewBox="0 0 330 330" preserveAspectRatio="xMidYMid meet">
 <g fill="#ffffff">
  <path d="M92.5 249.5 c-34.1 -25.6 -62.4 -47.1 -62.9 -47.9 -0.6 -0.9 2.7 -6.8 11.4 -20 6.7 -10.2 12.7 -18.6 13.4 -18.6 0.6 0 20.5 14.8 44.1 32.9 31.8 24.3 43.3 32.6 44.1 31.7 0.6 -0.6 25.5 -37 55.4 -80.9 29.8 -43.8 54.7 -79.7 55.2 -79.7 0.6 0 10.5 5.9 22 13.1 13.2 8.3 20.8 13.6 20.6 14.5 -0.5 2.6 -138.9 201.4 -140.1 201.4 -0.7 0 -29.1 -21 -63.2 -46.5z"/>
 </g>
</svg>